<?xml version="1.0" ?><svg data-name="Layer 1" id="Layer_1" viewBox="0 0 64 64" xmlns="http://www.w3.org/2000/svg"><title/><circle cx="32" cy="32" r="32"/><path d="M42.44,26.34a11.84,11.84,0,1,1-3.8-4.19" style="fill:none;stroke:#13628e;stroke-linecap:round;stroke-linejoin:round;stroke-width:3px"/><path d="M42.44,26.34a11.84,11.84,0,1,1-3.8-4.19" style="fill:none;stroke:#00e6f0;stroke-linecap:round;stroke-linejoin:round;stroke-width:1.5px"/><path d="M42.44,26.34a11.84,11.84,0,1,1-3.8-4.19" style="fill:none;stroke:#e2faff;stroke-linecap:round;stroke-linejoin:round;stroke-width:0.5px"/><path d="M25.18,32a6.81,6.81,0,1,1,1.54,4.32" style="fill:none;stroke:#bbbdbf;stroke-linecap:round;stroke-linejoin:round;stroke-width:3px"/><path d="M25.18,32a6.81,6.81,0,1,1,1.54,4.32" style="fill:none;stroke:#e6e7e8;stroke-linecap:round;stroke-linejoin:round;stroke-width:1.5px"/><path d="M25.18,32a6.81,6.81,0,1,1,1.54,4.32" style="fill:none;stroke:#e2faff;stroke-linecap:round;stroke-linejoin:round;stroke-width:0.5px"/><path d="M34.12,14.59H29.88a1,1,0,0,1-.93-.83l-.77-3.56h7.64l-.77,3.56A1,1,0,0,1,34.12,14.59Z" style="fill:none;stroke:#ff6800;stroke-linecap:round;stroke-linejoin:round;stroke-width:3px"/><path d="M23.48,16.67l-3.43,2.49A1,1,0,0,1,18.82,19L16.1,16.61l6.18-4.49,1.46,3.34A1,1,0,0,1,23.48,16.67Z" style="fill:none;stroke:#ff6800;stroke-linecap:round;stroke-linejoin:round;stroke-width:3px"/><path d="M16.1,24.61l-1.31,4a1,1,0,0,1-1.08.62l-3.62-.36,2.36-7.27,3.15,1.84A1,1,0,0,1,16.1,24.61Z" style="fill:none;stroke:#ff6800;stroke-linecap:round;stroke-linejoin:round;stroke-width:3px"/><path d="M14.79,35.36l1.31,4a1,1,0,0,1-.5,1.14l-3.15,1.84L10.09,35.1l3.62-.36A1,1,0,0,1,14.79,35.36Z" style="fill:none;stroke:#ff6800;stroke-linecap:round;stroke-linejoin:round;stroke-width:3px"/><path d="M20.05,44.84l3.43,2.49a1,1,0,0,1,.26,1.21l-1.46,3.34L16.1,47.39,18.82,45A1,1,0,0,1,20.05,44.84Z" style="fill:none;stroke:#ff6800;stroke-linecap:round;stroke-linejoin:round;stroke-width:3px"/><path d="M29.88,49.41h4.24a1,1,0,0,1,.93.83l.77,3.56H28.18L29,50.24A1,1,0,0,1,29.88,49.41Z" style="fill:none;stroke:#ff6800;stroke-linecap:round;stroke-linejoin:round;stroke-width:3px"/><path d="M40.52,47.33,44,44.84a1,1,0,0,1,1.23.12l2.72,2.43-6.18,4.49-1.46-3.34A1,1,0,0,1,40.52,47.33Z" style="fill:none;stroke:#ff6800;stroke-linecap:round;stroke-linejoin:round;stroke-width:3px"/><path d="M47.9,39.39l1.31-4a1,1,0,0,1,1.08-.62l3.62.36-2.36,7.27L48.4,40.53A1,1,0,0,1,47.9,39.39Z" style="fill:none;stroke:#ff6800;stroke-linecap:round;stroke-linejoin:round;stroke-width:3px"/><path d="M49.21,28.64l-1.31-4a1,1,0,0,1,.5-1.14l3.15-1.84,2.36,7.27-3.62.36A1,1,0,0,1,49.21,28.64Z" style="fill:none;stroke:#ff6800;stroke-linecap:round;stroke-linejoin:round;stroke-width:3px"/><path d="M44,19.16l-3.43-2.49a1,1,0,0,1-.26-1.21l1.46-3.34,6.18,4.49L45.18,19A1,1,0,0,1,44,19.16Z" style="fill:none;stroke:#ff6800;stroke-linecap:round;stroke-linejoin:round;stroke-width:3px"/><path d="M34.12,14.59H29.88a1,1,0,0,1-.93-.83l-.77-3.56h7.64l-.77,3.56A1,1,0,0,1,34.12,14.59Z" style="fill:none;stroke:#ffb700;stroke-linecap:round;stroke-linejoin:round;stroke-width:1.5px"/><path d="M23.48,16.67l-3.43,2.49A1,1,0,0,1,18.82,19L16.1,16.61l6.18-4.49,1.46,3.34A1,1,0,0,1,23.48,16.67Z" style="fill:none;stroke:#ffb700;stroke-linecap:round;stroke-linejoin:round;stroke-width:1.5px"/><path d="M16.1,24.61l-1.31,4a1,1,0,0,1-1.08.62l-3.62-.36,2.36-7.27,3.15,1.84A1,1,0,0,1,16.1,24.61Z" style="fill:none;stroke:#ffb700;stroke-linecap:round;stroke-linejoin:round;stroke-width:1.5px"/><path d="M14.79,35.36l1.31,4a1,1,0,0,1-.5,1.14l-3.15,1.84L10.09,35.1l3.62-.36A1,1,0,0,1,14.79,35.36Z" style="fill:none;stroke:#ffb700;stroke-linecap:round;stroke-linejoin:round;stroke-width:1.5px"/><path d="M20.05,44.84l3.43,2.49a1,1,0,0,1,.26,1.21l-1.46,3.34L16.1,47.39,18.82,45A1,1,0,0,1,20.05,44.84Z" style="fill:none;stroke:#ffb700;stroke-linecap:round;stroke-linejoin:round;stroke-width:1.5px"/><path d="M29.88,49.41h4.24a1,1,0,0,1,.93.83l.77,3.56H28.18L29,50.24A1,1,0,0,1,29.88,49.41Z" style="fill:none;stroke:#ffb700;stroke-linecap:round;stroke-linejoin:round;stroke-width:1.5px"/><path d="M40.52,47.33,44,44.84a1,1,0,0,1,1.23.12l2.72,2.43-6.18,4.49-1.46-3.34A1,1,0,0,1,40.52,47.33Z" style="fill:none;stroke:#ffb700;stroke-linecap:round;stroke-linejoin:round;stroke-width:1.5px"/><path d="M47.9,39.39l1.31-4a1,1,0,0,1,1.08-.62l3.62.36-2.36,7.27L48.4,40.53A1,1,0,0,1,47.9,39.39Z" style="fill:none;stroke:#ffb700;stroke-linecap:round;stroke-linejoin:round;stroke-width:1.5px"/><path d="M49.21,28.64l-1.31-4a1,1,0,0,1,.5-1.14l3.15-1.84,2.36,7.27-3.62.36A1,1,0,0,1,49.21,28.64Z" style="fill:none;stroke:#ffb700;stroke-linecap:round;stroke-linejoin:round;stroke-width:1.5px"/><path d="M44,19.16l-3.43-2.49a1,1,0,0,1-.26-1.21l1.46-3.34,6.18,4.49L45.18,19A1,1,0,0,1,44,19.16Z" style="fill:none;stroke:#ffb700;stroke-linecap:round;stroke-linejoin:round;stroke-width:1.5px"/><path d="M34.12,14.59H29.88a1,1,0,0,1-.93-.83l-.77-3.56h7.64l-.77,3.56A1,1,0,0,1,34.12,14.59Z" style="fill:none;stroke:#ff0;stroke-linecap:round;stroke-linejoin:round;stroke-width:0.5px"/><path d="M23.48,16.67l-3.43,2.49A1,1,0,0,1,18.82,19L16.1,16.61l6.18-4.49,1.46,3.34A1,1,0,0,1,23.48,16.67Z" style="fill:none;stroke:#ff0;stroke-linecap:round;stroke-linejoin:round;stroke-width:0.5px"/><path d="M16.1,24.61l-1.31,4a1,1,0,0,1-1.08.62l-3.62-.36,2.36-7.27,3.15,1.84A1,1,0,0,1,16.1,24.61Z" style="fill:none;stroke:#ff0;stroke-linecap:round;stroke-linejoin:round;stroke-width:0.5px"/><path d="M14.79,35.36l1.31,4a1,1,0,0,1-.5,1.14l-3.15,1.84L10.09,35.1l3.62-.36A1,1,0,0,1,14.79,35.36Z" style="fill:none;stroke:#ff0;stroke-linecap:round;stroke-linejoin:round;stroke-width:0.5px"/><path d="M20.05,44.84l3.43,2.49a1,1,0,0,1,.26,1.21l-1.46,3.34L16.1,47.39,18.82,45A1,1,0,0,1,20.05,44.84Z" style="fill:none;stroke:#ff0;stroke-linecap:round;stroke-linejoin:round;stroke-width:0.5px"/><path d="M29.88,49.41h4.24a1,1,0,0,1,.93.83l.77,3.56H28.18L29,50.24A1,1,0,0,1,29.88,49.41Z" style="fill:none;stroke:#ff0;stroke-linecap:round;stroke-linejoin:round;stroke-width:0.5px"/><path d="M40.52,47.33,44,44.84a1,1,0,0,1,1.23.12l2.72,2.43-6.18,4.49-1.46-3.34A1,1,0,0,1,40.52,47.33Z" style="fill:none;stroke:#ff0;stroke-linecap:round;stroke-linejoin:round;stroke-width:0.5px"/><path d="M47.9,39.39l1.31-4a1,1,0,0,1,1.08-.62l3.62.36-2.36,7.27L48.4,40.53A1,1,0,0,1,47.9,39.39Z" style="fill:none;stroke:#ff0;stroke-linecap:round;stroke-linejoin:round;stroke-width:0.5px"/><path d="M49.21,28.64l-1.31-4a1,1,0,0,1,.5-1.14l3.15-1.84,2.36,7.27-3.62.36A1,1,0,0,1,49.21,28.64Z" style="fill:none;stroke:#ff0;stroke-linecap:round;stroke-linejoin:round;stroke-width:0.5px"/><path d="M44,19.16l-3.43-2.49a1,1,0,0,1-.26-1.21l1.46-3.34,6.18,4.49L45.18,19A1,1,0,0,1,44,19.16Z" style="fill:none;stroke:#ff0;stroke-linecap:round;stroke-linejoin:round;stroke-width:0.5px"/></svg>