<?xml version="1.0" encoding="utf-8"?>
<!-- Generator: Adobe Illustrator 22.0.0, SVG Export Plug-In . SVG Version: 6.00 Build 0)  -->
<svg version="1.1" xmlns="http://www.w3.org/2000/svg" xmlns:xlink="http://www.w3.org/1999/xlink" x="0px" y="0px"
	 viewBox="0 0 1080 1168.5" style="enable-background:new 0 0 1080 1168.5;" xml:space="preserve">
<style type="text/css">
	.st0{display:none;}
	.st1{display:inline;fill:none;stroke:#EFE3D5;stroke-miterlimit:10;}
	.st2{fill:#F78F1E;}
	.st3{fill:#E3A176;}
	.st4{fill:#0E1212;}
	.st5{fill:#0B0F0E;stroke:#FFFFFF;stroke-miterlimit:10;}
	.st6{fill:#1A1E1E;stroke:#FFFFFF;stroke-miterlimit:10;}
	.st7{fill:#E9C18E;stroke:#FFFFFF;stroke-miterlimit:10;}
	.st8{fill:#ECBA8A;stroke:#FFFFFF;stroke-miterlimit:10;}
	.st9{fill:#B87E59;}
	.st10{fill:#221E1F;}
	.st11{fill:#101413;}
	.st12{fill:#090A0A;}
	.st13{fill:#E9BA8B;}
	.st14{fill:#E8BB90;}
	.st15{fill:#CF5760;}
	.st16{fill:#D1D3D4;}
	.st17{fill:#E3AA79;}
	.st18{fill:#C18862;}
	.st19{fill:#AC7451;}
	.st20{stroke:#000000;stroke-miterlimit:10;}
	.st21{fill:#ECC6A6;}
	.st22{fill:#793034;}
	.st23{fill:#FECE95;}
	.st24{fill:#D25862;}
	.st25{fill:#FBF9F9;}
	.st26{fill:#C9CACC;}
	.st27{fill:#F9F8F7;}
	.st28{fill:#F9F8F8;}
	.st29{fill:#F5F2F2;}
	.st30{fill:#F8F5F4;}
	.st31{fill:#F0EDED;}
	.st32{fill:#EAE3E3;}
	.st33{fill:none;}
	.st34{fill:#E9C18E;}
	.st35{fill:#0B0F0E;}
	.st36{fill:#1B1719;}
	.st37{fill:#301F1B;}
	.st38{fill:#ECBA8A;}
	.st39{fill:#8F383C;}
	.st40{fill:#DD5860;}
	.st41{fill:#C2C4C6;}
	.st42{fill:#1A1E1E;}
	.st43{fill:none;stroke:#FFFFFF;stroke-miterlimit:10;}
</style>
<g id="Layer_1" class="st0">
	
		<image style="display:inline;overflow:visible;" width="510" height="492" xlink:href="4E6F5D0E.jpg"  transform="matrix(1.0949 0 0 1.0949 -608.2513 139.52)">
	</image>
	<path class="st1" d="M617.8,28.3"/>
	
		<image style="display:inline;overflow:visible;" width="720" height="1280" xlink:href="4E6F5D09.jpg"  transform="matrix(1 0 0 1 180 -119.623)">
	</image>
</g>
<g id="Layer_2">
	<circle class="st2" cx="540" cy="628.5" r="489"/>
	<polygon class="st3" points="267,967.8 268,966.9 270.4,965.7 271.5,966.6 272,967.1 269.5,969.2 	"/>
	<polygon class="st3" points="276.8,973.9 278.8,973.2 279.6,974.4 281,975 276.4,975.4 275.6,974.5 	"/>
	<polyline class="st3" points="263.7,975.1 262.9,975.8 265.6,975.7 266.4,974.6 263.7,975.1 	"/>
</g>
<g id="Layer_3">
</g>
<g id="Layer_4">
	<path d="M634.7,384.5c0,0-0.9-2,1.6-2.3c2.5-0.3,5,1.5,5.3,1.8s3.8,3.4,3.8,3.4s0.6,0.8,0,2.6c-0.6,1.8-2.9,6.1-2.9,6.1l-3.3,4.7
		l-1.8-1.3c0,0,0.1-7.3-0.4-8.8S633.4,385.2,634.7,384.5z"/>
	<path class="st4" d="M641.3,382.2c0,0,9.7,6,11.5,9.7c1.8,3.7,12,10.2,21,13.8c9,3.7,10.7,3,13.7,6.3s19.5,12,25.5,12.5
		s-2.7-0.5,1.7,0s6.7,1.2,6.7,1.2s59,22.1,61.8,26.8s7.5,8.8,9,9.3s5.3,2.8,6.8,6s3.5,6.8,3.5,6.8v3.3c0,0,4,2,7.3,8.8
		s9.5,18.8,11,24.8s7.8,21.8,8.3,26.3s4.8,18,4.8,18l4.3,26.8l3,13.8l-14.9,44.8l-55.6-128.3L725,462.8l-42-4.3l-27-6l-10.8-4.8
		l-33.5,0.8L617,437l-16.5-9.1v-3.1c0,0,14.9-3.2,23.8-10.2c8.9-7,12-15.5,12-15.5l0.6-4.4l1-3.9c0,0,1.6,7.4,0.5,10.3
		s2.8,1.3,3-1.6s1.4-9.1,1.4-9.1l3,2.5c0,0,0.5-4.8,0-5.3s-4.6-3.6-5.8-4s-2.1-0.6-2.1-0.6L641.3,382.2z"/>
	<path class="st5" d="M469.9,372.2c0,0-9.3-0.2-11.8,7.1c0,0-7.3-2.8-12,4l-11,4.5c0,0-28.3,16.8-37.8,21s-23.5,9.8-23.5,9.8
		s-33,8.5-38.3,7.5S300,442,300,442l-10.6,5.7c0,0-11,16.7-15.7,21.3s-38,52-40.3,95.7c0,0-10,57-10.7,59.7c-0.7,2.7-9,35.7-11.7,39
		c-2.7,3.3,2.7,7.7,10.3,9.3c7.7,1.7,89,21,116.3,21c0,0,2.7,4.3,0.3,12c-2.3,7.7-1.3,15.3-1.3,15.3s5.3,7.3,5,11s-4.3,15.7-3,21
		s0.4,9,1.4,14.3c1,5.3-2,21.3,0,26.7c2,5.3,7,15,7,15l3,2.7c0,0-3,18-5,20.3s-3.7,3.7-3,7.3c0.7,3.7-4.3,25.3-4.3,25.3l-0.3,22
		l1,24.3c0,0-3.2,40.5-3.2,43s1,17.5,1,17.5l-5,14l8.9,19.5v3.5c0,0,80.7,36.5,144.9,39.4c64.2,2.9,108.1,1.5,133.6-3.3
		s97.2-23.8,127.7-39.3s25.5-12.8,25.5-12.8l-4.6-6.5c0,0,1.3-6.3,0.3-10.3s-1-4-1-4s3.5-9.8,2.3-11.8s-5-4.3-5-4.3s-4-10.3-4-12.5
		s-1.3-4.5-1.3-4.5l-0.3-9.3l-1-7.5l-0.8-7.8l-2-34l3.8-10c0,0-4.8-51.6-8.2-58.6s-17-49-17-49l4-34l3-12.7l7-23.7
		c0,0,86.7-7.7,95.3-11.3c0,0,10.7,1.7,11-0.3c0.3-2-2.7-13-2.7-13l-4.3-35.7l-0.3-26.3l-5.3-14.3l-8.5,27.7l-5.5,11
		c0,0,8-29.5,6-39s1-36-5.5-43s-15.5-33-17-35s-9.5-20-9.5-20l-7.5-19.5c0,0-42-13-46.5-25.5l-10.5,1l-19,7l0.5-6c0,0-14.5-2-24,2
		s-42-4.5-43.5-7s-29,0-29,0l2-4.5c0,0,22.5-5,23-9s0-15.5,0-15.5l-14,8l-15.2,1l-143.7-52.8H469.9z"/>
	<path class="st6" d="M635.8,380.9c0,0,7-0.5,10.3,2.7s8.2,8.2,9.5,9.7s16.7,10.7,21.5,12c4.8,1.3,8.5,3.2,12,6.3s17.5,10.5,22,10.7
		c4.5,0.2,40.9,13,46.3,16.5c5.4,3.5,25,11,25,11s5.3,7.5,8,9c2.7,1.5,9.7,4.8,10.7,9.2c1,4.3,3.3,9.5,5,10.7s6.3,8.8,8,13
		s9.7,23.7,10.7,26s6.7,26.5,6.7,26.5l2.8,8.7l7.4,41l-3.7,1.1l-4.3-34.2L820,523.5l-17.5-36.7l-9.3-18.8l-22.3-16.7l-45.2-16.5
		L675.5,423L649,404.4l-10.7,1.7l-0.5-7.4c0,0,2.1,2.1,3.1-1.5s1.9-6.9,1.9-6.9s2.4-2.3,0.3-4.1s-6.9-4.4-7.3-4
		c-0.4,0.5-1.1,2.3-1.1,2.3s-0.4-0.6-0.4-1.3S634.5,381.5,635.8,380.9z"/>
	<path class="st7" d="M747.1,692.4l-5.7,25.3c0,0,12.7,44.7,14.3,51.7c1.7,7,8,30.3,8.7,37.3c0.7,7,6.3,39.7,9.3,48.7
		s2.3,28.4,4.8,39.9s8,39,9.8,45.3s9.8,33,9.8,33l0.8,1.8c0,0,68.7-43.7,88.7-73.3l2-3.7c0,0-6.7-44.3-7.3-46.7
		c-0.7-2.3-5-24.7-8-29.7s-12.7-39-14.3-54.7c-1.7-15.7-13.7-96.7-13.7-96.7L747.1,692.4z"/>
	<path class="st8" d="M453.8,194c0,0-5.2-1.3-8.1-1s-8.8,10-10.3,16c-1.6,6-3.8,15.8-2.6,18.3s5.3,15.9,4.8,18.6s4.4,7.4,5.6,12.2
		s6.4,17.3,10.7,19s9.7,3.5,12.6,2.5s4.6,1.8,4.6,1.8s4,24.5,4,27.8s4.8,54.8,2.3,59s-11.8,8-12.5,10.8S474,420,566,427.5
		c0,0,57.6,6,70.9-30c0,0,0.1-6-2.2-9.3s-2.3-7.3-2.3-11.3s3.1-37.6,3.1-37.6s12.2-17.7,15.2-22.5s10.8-20.9,10.8-20.9
		s5.3,4.9,5.6-1.6c0.3-6.5,3.3-11.5,4.8-13.8s5.8-10.5,5.5-16.3s-2.8-19.5-2.3-23.3s3-16.6,3.9-17.9s0.8-6.3-2.9-5.8
		s-6.4-0.4-6.4-0.4l0.9-36.8l-12.5-43.9L611,112.5L507.3,121l-30,23.8L453.8,194z"/>
	<path class="st9" d="M485.6,152c0,0,2.8-3.3,3.2-5.3s6.7-3.7,6.7-3.7l1.8-1.7h6l2.7-3.2v2.7c0,0,0.3-2.7,5.5-2.7
		c5.2,0,9.7-1.3,9.7-1.3l-1.3,2.3h5.5l-0.7,2.7c0,0,5.2-2.8,8.3-4.3c3.2-1.5,5.2-0.7,5.2-0.7s5.8-3.2,7-3.7s8.8-4,11.5-4.5
		s5-4.3,5-4.3s10.5-1.3,11-3.2c0.5-1.8,6-2.8,8-1.8s12.8,0.8,12.8,0.8l3.7,1.7l8-1c0,0,8.8-3.2,12-1.2s4.2,2.3,4.2,2.3l-1.2-2.3
		c0,0,6.2,3.2,7.8,5.2c1.7,2,6.3,5.8,6.3,5.8s4.8,2.8,6,4.8c1.2,2,5.2,4,5.2,4s9.3,7.2,10,8.7c0.7,1.5,0.8,3.8,0.8,3.8l3.7,11.5
		c0,0-2.2-23.9-6.1-27.7c-3.8-3.8-31.2-26.2-31.2-26.2s-30.5,1.2-32.5,1c-2-0.2-52.8,13.8-52.8,13.8h-26.7l-13.8,2l-13.8,10.1
		l-4,20.4L485.6,152z"/>
	<path class="st10" d="M680.3,139.3v8.8v4.5h1.3l-1.3,6.5l0.6,2.5c0,0-2.6,6.5-3.1,8.3s0,4.3,0,4.3l-0.2,5.8l-1.8,2.8v5.3L673,199
		l2.5,2.3l-2.5,7.3l-1.3,5.8v3l-5,8.3c0,0,2-38.3,0-39.5s-9.1-21.8-8.5-25.5c0.6-3.7,0-16,0-16l11.6-10.5l10.4-5.3V139.3z"/>
	<path class="st10" d="M467.3,206.5c0,0-0.5,19,0,21c0.3,1,0.9,5.1,1.4,8.9c1.3-0.2,2.7-0.2,4-0.3c-1.5-9.1-3-22.1-0.9-27.4
		c3.3-8.7,2-26,2-26l9-19.3l4.3-4.3l-4-6l3-4.3v-16.3c0,0-53.7-7.1-37.3,24.9c0,0,3.3,1.7,3.8,10.7s1.3,26,1.3,26s4.3,7,7.3,8.3
		S467.3,206.5,467.3,206.5z"/>
	<path d="M472.3,91c0,0-10.6,3.9-9.6,8.9s-9.2,1.7-8.5,8.7c0.7,7-1.9,5.8-1.9,5.8s3.3-11.3,6-13.3c2.7-2,5.3-3.7,5.3-3.7
		s18.3-23,27.3-28.7c9-5.7,14.7-4.7,17-6c2.3-1.3,8.3-5,13.7-6c5.3-1,11-3.7,11-3.7s9-0.3,10.7-3.3s5.3-11.7,16.3-11
		c11,0.7,18.7,1.6,25.7,0s18,7,18,7s8,6.7,10,6.3c2-0.3,6-3.3,6-3.3l-3.7,6l9.3-0.3c0,0-3,1.7-2.7,3.3c0.3,1.7,5.3,7,9,7
		s5.3-5.3,5.3-5.3s-2,8.3,0,10.3s6.3,11.7,8,11.7c1.7,0,5.6,2.1,7.1,4.5c1.6,2.5,11.2,5.5,11.2,5.5l6.4-1c0,0-2.9,8.3,0,9.3
		c2.9,1,3.6,3.7,3.6,3.7l6.5,7.2l4.5,7.5l4,8l-7,9l-6,4.5v11c0,0-3-10.5-5-5s-2,5.5-2,5.5l-3.5,2.5l0.5,6h-3.5l-1,5.5
		c0,0-2.5-13-2.5-17s-13.7-9.3-17.3-16.3c-3.7-7-17.3-15-17.3-15l-6.3-3.7l-0.3,3.7l-4-1.7c0,0-8,2-9.3,3s-4.3,0.7-4.3,0.7
		s-3.3-2.3-8.7-2c-5.3,0.3-9.7-1.3-9.7-1.3s-9.3,1-10.3,3.3c-1,2.3-2.5,1-2.5,1s-8.1,3-9.5,4.3s-13.3,7-13.3,7l-15.3-1.3l2-1.7
		c0,0-4.3-1-7.3-1s-8.3,3.3-8.3,3.3s-8-2.3-11.3-2c-3.3,0.3-8.3,0.7-9.7,3c-1.3,2.3-5,4.7-5,4.7l-2.3,4.7l-7.3,8l-1.3-2.3l-4,6.3
		l-2.3-3l-3.3,3c0,0-1.7-3.3-3.3-4.3s-6-0.3-7.7-4.7c-1.7-4.3-1,6-1,6l-4-8c0,0-3.3,10.7-2.7,12c0.7,1.3-3.7-6.7-3-9
		c0.7-2.3-0.1,9.7-0.1,9.7l3.1,6.3c0,0-7-3.7-7.7-8.3c-0.7-4.7,0-11,0-11l-2.3-5l-3.3-6.7c0,0,5,3.7,6,2c1-1.7,1.3-7-1.3-7.7
		s-5.6-6.2-0.6-8.6s2.3-7.2,2.3-7.2l3.5,7.3c0,0-3.4-9.9,0.1-11.3c5.8-2.3,10.1-4.1,10.1-8.4S469.9,90.3,472.3,91z"/>
	<path class="st7" d="M215,670.4c0,0-9.2,82.2-9.2,91.2s-4.5,31.5-7,41s0.5,27,0,34s-7.3,24.8-8.7,42.5c-1.3,17.7,0,22.8,0,22.8
		s40.2,40.9,46.4,41.9c0,0,29.3-1.8,37.8,0s23.5,7,23.5,7s0.3-54.3-2.3-59.5s-3.8-30.8-1.8-38.3s6-31.6,13.3-42.5
		c7.3-10.9,25.2-55.1,28.3-84.9c3.2-29.8,5-42,5-42L215,670.4z"/>
	<path d="M459.8,384c0,0,18.7,33.3,67.3,41.3s64.7,6,69,5.3c4.3-0.7,22-3,35.3-14.7l5.5-5.3c0,0-0.5,4.7-4.2,8
		c-3.7,3.3-4.6,5.6-4.6,5.6l8.8-2.9c0,0-20.8,13-28.5,14.3c-7.7,1.3-40.3,3.3-48.8,2.3s-61.2-10.7-62.8-11.7s-33.3-22.3-37-29.1
		s-5.3-8.5-5.3-8.5L419,404.3l28.3-17.5l3-1.5l2.3-3.1L459.8,384z"/>
	<path d="M346.4,424.8c0,0-17.8,2.4-27.8,7.5c-10.1,5.1-26.1,13.8-26.1,13.8s11.3-5.7,17.3-5.7s21.7,0,21.7,0l-10-2.1
		c0,0,21.6-11.2,28.7-13.5s12.7-1.8,12.7-1.8L346.4,424.8z"/>
	<path d="M368.5,1008.7h32v7.7c0,0,3.3,1.3,21.3,0c18-1.3,32-3.5,32-3.5s-2,5.2,2.3,9.2c4.3,4,13.7,13,13.7,13l14.7,2h8.7l6.7,9.7
		c0,0-46.3,2.3-129.3-28l-20.3-13.3L368.5,1008.7z"/>
	<path class="st11" d="M350.1,424.8c0,0,24.7-1.5,29.9-4.5s33.3-13.3,33.3-13.3s-21.8,10-26.8,13.8s-11,12.8-11,12.8l-3.5,1
		c0,0-5.3-3.8-16.5-3s-26.7,3-26.7,3L350.1,424.8z"/>
	<path class="st4" d="M668.8,775c0,0,1.3,16.7,10,22.7c8.7,6,17.1,30,17.1,30s6.3-0.7,8.3,16c2,16.7-12.6,28-8.3,41.3
		s24.8,31.3,24.8,31.3s-31.9-15.3-40.5-4.7c-8.7,10.7-15.3,26-2.7,33.3c12.7,7.3,45.3,10,50,16c4.7,6-0.7,22.7-10.7,26.7
		s-54,30-63.3,26c-9.3-4-48-42-48-42s30.7,8.7,44,3.7c13.3-5,17.9-5,17.9-5s-18.5-21.3-18.5-26c0-4.7-19.3-30-19.3-30s7.3,8,20-2
		c12.7-10-4.7-30-4.7-30l16-24.1c0,0,0.7-15.2-8.7-26.5c-9.3-11.3-10-46-12.7-54c-2.7-8,8.7-35.3,8.7-35.3l23.3-34.9l18-7.1
		c0,0-33.6,45.3-22.1,71.3S668.8,775,668.8,775z"/>
	<path class="st4" d="M474.8,1026.1c0,0,49.3-13.4,57.2-11.9c7.8,1.4,8.3,3.1,17.3,0c9-3.1,34-2.1,44,5.9s12.2,12.5,12.2,12.5
		s11.8-5,26.8-6.5s45.5,0,45.5,0s-76,24.4-114,20.7s-62.8,0-62.8,0l-7.9-9.7l-24.7-3.4l-8-7.6H474.8z"/>
	<path class="st12" d="M518.8,434.6c0,0-9.5,4.6-13,11.6c-3.5,6.9-4.5,2.1-17,0c-12.5-2.1-12.5-2.1-12.5-2.1l2.5,10
		c0,0-10.5,5.5-17,7.5s-22.5,0-22.5,0v10c0,0-5-7-20.3,0s-15.3,7-15.3,7l21,9.3c0,0-17,8.2-21,14.2s9.5,17,9.5,17s-10.5,6.5-7,20
		s23,28.5,23,28.5s0.5,5.2-2.5,13.1c-3,7.9,0,6.4,0,6.4s-6.2-8.5,5.6-2c11.9,6.5,1.7,37.8,4.4,47.5s16,17.8,16,17.8l-2.7,15.3l18,5
		c0,0,2.7,15-4,32.3c-6.7,17.3,11.3,29.3,12,47.3c0.7,18-11.3,56-11.3,56l34.7,28l-18.7,5.3c0,0,2.7,42,22,48s29.2,8,29.2,8
		l-9.2,5.3c0,0,24.6,19.3,46.3,17.3s31.4-5.3,31.4-5.3s-23.8,21.3-31.4,29.3c-7.6,8-150.1,65-150.1,65l-32.3-2l-25-3.3l-6.3-147.7
		V817l-5.3-62.3v-87l3.3-35.1l-24.6-44.9l-9.4-44l-22.3-86l-4.7-7.3c0,0,10.9-8.3,23.7-12.1c12.7-3.8,39-8.6,49.7-8.9
		c10.7-0.3,87.7-35,87.7-35S472.8,426.7,518.8,434.6z"/>
	<path d="M317.1,507.4c0,0,6,19.7,6.3,27.3c0.3,7.7,0,11.3,0,11.3s5-0.3,5,7.7s3.3,20,3.3,20l8.7-13.7c0,0-8.3,13-5.3,18.3
		c3,5.3,7.7-1.3,7.7-1.3s-8.7,10-5.7,15.3c3,5.3,3.3,8.7,3.3,8.7s2.7-2.7,7.3-8s6-12.7,6-12.7s2.7-9.7,4.7-12.3s9.3-6,9.3-6l9.7-7.8
		c0,0-6.7,11.5-7.3,13.5c-0.7,2-8.3,12.7-8.3,12.7s-4.7,6.3-4.7,15.3s-3.3,20-3.3,20l7.7-2.7l1.3,10c0,0-1.7-0.7,5.7-3.7
		c7.3-3,7.3-3,7.3-3s-9.3,10.3-11.3,12.7s-3.3,8-3.3,8l16.3-3c0,0-6.3,3-7.3,4.7c-1,1.7,1.3,5.7,1.3,5.7l-0.3,4l1,8.3l-9.3-7.7
		l-8,0.3c0,0,1,16,0.7,26c-0.3,10-3,19-3,19s-1,8,1.3,14.7s7,16,4.7,25c-2.3,9-2,18.7-1.3,24.3c0.7,5.7,0.7,35.3-1,39.3
		c-1.7,4,6.7,24.3,6.7,32.3s-3.5,18.5,0,26.5s1,20,1,20s1.5-20,4.5-4s-9.5,14,0.5,34.5s35,24.5,35,24.5l-10.5,9c0,0,10,5.5,29.5,4
		s36.5-4.5,36.5-4.5l57,10.8h10c0,0-16,14.3-34,18.8S450.8,981,450.8,981s-25.5,9-35.5,11s-53.5,10-53.5,10l3.5-6.5l-9,1
		c0,0-2-13-3.5-15.5s-14.5-10.2-14.5-10.2s-3.1-16.3-2.8-20.1c0.3-3.8,1.3-18.2,1.3-18.2l4.7-13.9c0,0-4.1,4.5-1-12
		c3-16.5-3.2-33.3-1.3-42.5c1.9-9.2,2.8-20.9,2.8-20.9s2.4-10.3,7.2-19.1c4.8-8.8-10-30.2-8.7-34.2c1.3-4-0.3-22.7-0.3-22.7
		s3.1-3.8,2.6-6.3s-1.3-18.2-1.3-18.2l1.3-7l-5.7-14.4c0,0,5.7-53.5,5.7-61s4-22,0-28S323.3,615,323.3,615l-11.5-9.5l24,11l4.7-2.5
		c0,0-7.2-13.3-13.2-19.2c-6-5.8-5.5-13.3-5.5-18.8s-1.5-14-1.5-14l-4.5-11l-4-6.5L317.1,507.4z"/>
	<path class="st12" d="M291.1,458c0,0,8.7,28.7,10.7,33.7s10,35,10,35s4.1,28.5,7,31.7s8.3,25.6,13.6,33.3c5.3,7.7,11.3,28,11.3,28
		l4,15.3l-4,41l-117.7-14.3c0,0,13-103.3,15.3-111.3c2.3-8,13.7-54.3,23.5-63.7C274.8,477.4,291.1,458,291.1,458z"/>
	<path d="M226.8,653l115.4,17.3l-1.7,13.3L215,670.4l-3.1-3.7c0,0-1.3-4.3,4-13.3c5.3-9,6-12.5,6-12.5s10-4.3,16-11.8s2.5-37,6-44
		s11,0,11,0s-1.5-23-0.5-33.5s5.9-26.1,10.7-40s22.8-34,22.8-34l-3.5,29.8l11.5-10.8c0,0-5.5,51.5,1,58.5s15,25.6,15,25.6l7.5,14.3
		h-14.5c0,0-3.5,12.7,4.5,18.2s22.5,16.5,22.5,16.5s-6.5,19-15,21s-20,4.5-20,4.5l-9-3L226.8,653z"/>
	<path class="st12" d="M741.5,630.4c0,0,1,29.3-3.5,45.7s-4.8,31.4-4.8,31.4l-5.7,26.9l-18-30v-18c0,0-23.3,23.3-22.7,37.3
		c0.7,14,10.7,41.3,14.7,49.3s2.7,28,2.7,28l-12-10c0,0,11.3,22,17.3,32s3.3,30.7-0.7,38.7s-10.7,16-5.3,24c5.3,8,25.7,30,25.7,30
		s-41.7-3.3-46.4,4.7c-4.7,8-3.3,18,6.7,20s70,20.7,38,46.7s-40,39-40,39s73.3-27,72-45c-1.3-18-9.3-144-18-167.3
		c-8.7-23.3-12.3-44-12.3-44l8.8-44.5l9.2-36.5L741.5,630.4z"/>
	<path d="M705.3,927c0,0,15.3,11.3,21,11.3s14.5-1.8,19.5,1.5s10.8,8.3,10.8,8.3l-2.8-8.5V935l-4.8-5.5l4.5-2.5l-1.3-13.8l-5.5,2.3
		c0,0,5-8.3,5-9.8s-1.5-12-1.5-12v-12c0,0-0.5-7.5,0-10s1.3-19.8-0.3-23s-14.8-40.3-25.8-55.3s-27-57.5-28-64s0-20.5,0-20.5
		s10,3.5,14.5,14s25.8,50.2,25.8,50.2l16.7,62.2c0,0,3.1,16.5,3.5,20.3s0.7,15,0.7,15l-4.4,4l2.8,28.3c0,0,1,16,1.4,19
		c0.4,3,0.7,5.1,0.7,5.1s-0.1,10.2,0.6,11.6c0.6,1.5,1.2,5.5,2,8c0.8,2.5-0.7,6.1,1.5,7.7c2.2,1.6,4.8,4.2,5.6,5.9
		c0.7,1.7,1.1,8.3-0.4,9.5c-2.3,2-0.7,6.6-0.7,6.6l0.8,9.6l3.2,7.1c0,0-23.7,10.9-32,13.9c-8.3,3,16.3-12.3,16.3-22.3
		s-0.3-14-0.3-14L736.8,954l-16.7-2C720.1,952,700.8,937,705.3,927z"/>
	<path class="st12" d="M777.5,542c0,0,4.7,5.7,5.7,9.7s-2.8,10.3-2.8,10.3l-2.8,9.3l-1.7,8.7c0,0-3.7-14.7-3.7-20.7s0-6,0-6
		s-8,16-4.7,22.7c3.3,6.7,5.7,16.7,5.7,16.7s-6.3,6.3-6.5,14.7c-0.2,8.3,2.1,25.2,2.1,25.2l-6,24.1l18.3,10.3c0,0,18.7,9.3,29.3,0
		c10.7-9.3,18.7-17.3,18.7-17.3l-9.8-24.7l-27.5-63l-21.5-49.5L777.5,542z"/>
	<path d="M741.5,557.7c0,0,18.7,12.7,23.3,27c4.7,14.3,4,29.7,4,29.7l4.7-8l2.7-13.7l14.3-25c0,0-4.7,22-4.3,27.2
		c0.3,5.2-7,17.8-7,17.8s-2.3,12-3.7,18.7C774.1,638,766,647,766,647s4.2-3,7.8,4.7c3.7,7.7,9,2.7,9,2.7V647c0,0,3.3,9.7,5.3,12
		s17,1.7,17,1.7s4-11,6.7-12.7c2.7-1.7,3.7-12.3,3.7-12.3l7.7,10.3l9.1-24.2l7.5-22.6c0,0,3.4,32.1,4.1,40.1
		c0.7,8,7.1,42.3,7.1,42.3l-107.1,25.8c0,0,7-38.1,8-48.1s-2.3-31.3-2.3-31.3l-2-5l11.3,11.7l-3.3-12.7l-2.3-9.3
		c0,0-2.7-20.3-8.3-26.3c-5.7-6-17.3-13.7-17.3-13.7s15.7,4,21.3,11.7c5.7,7.7,12.3,33,12.3,33l-5-33.3L741.5,557.7z"/>
	<path class="st4" d="M615.8,444.8l33.5-0.8c0,0,11.5,5.3,14.2,5.9c2.7,0.7,28,5.3,28,5.3l14,2c0,0-28.3,0.7-34.1,4.7
		s18.1,11.8,18.1,11.8s-32.7,3.8-39.3,10.3c-6.7,6.5,7.3,13.8,7.3,13.8s-32,6.9-33.3,9.8s14.1,10.3,14.1,10.3s-18.8,13.9-22.4,19.9
		c-3.7,6-3,18.7,0,20.3c3,1.7,17,5,17,5s-51.3,5.8-54,13.6c-2.7,7.8-20.2-7.6-18.8-13.6s-3.2-18.7-3.2-18.7s-50.7,6.7-32.7,0.7
		s50-17.9,60.7-27.3c10.7-9.4,24.7-33.9,24.7-33.9l-12-5.5l15.4-12.7L615.8,444.8z"/>
	<path class="st13" d="M886.8,888.7c0,0-5.1,23.5-11,27.2l-7.7,7.5l-10.6,9.3l-24.2,19h-4.9l14.3-9.8l14.5-18.5"/>
	<polygon class="st13" points="262.6,936.5 269.1,943.2 297.8,950.8 297.5,949 296.8,943.7 250,921.2 261.4,935 	"/>
	<path class="st3" d="M269.6,942.5l23.7,40.5c0,0-55.5-34.2-56.5-42.5C235.8,932.2,269.6,942.5,269.6,942.5z"/>
	<polygon class="st13" points="255.9,932.9 295.3,948.3 294.6,983 261.5,941.7 247.1,928.9 	"/>
	<path class="st3" d="M624,370.7c0,0-21.5,10.9-25.1,13.8s3.9,4.9,3.9,4.9s0.9,2.8-1.2,4.3c-2.1,1.5-12.8,3.2-13.1,4.3
		c-0.3,1.2-5.3,4.4-4.3,4.9s-2.3,3.8-2.3,3.8s-13.6,1.8-25.4-4.3s-32.8-10-32.8-10L479,369.2c0,0,1.5-7.3,0.5-9.5
		s-0.2-13.8-0.2-13.8l-2.4-55l14,44.5l18.8,18.3l7.5,9.3l28.9,10.8l20,2.1l18.7-0.3l14.5-1.8l13.6-5.2l4.4-1.4l3-3.7l6.6-4.8
		L624,370.7z"/>
	<polygon class="st3" points="478,371 486.3,379.5 489.5,383.5 522.5,395.8 534,398.3 552.8,405 573.5,411.8 583.8,410.3 590,405 
		592.3,400.7 610.2,396.8 590,393 578.5,396.8 558,394.4 506.5,379.5 479.8,369.7 	"/>
	<path class="st14" d="M455.3,200.6l8.5,6.1l2.6,8.2v9.7c0,0-2.1-3.9-4.8-8.6c-2.7-4.7-3.4-7.4-3.4-7.4l-6.6-10.3L455.3,200.6z"/>
	<path class="st15" d="M530,279.1c0,0,12.1-8.4,25.1-9.6c13-1.2,29.9,0.7,29.9,0.7s10.7,3.4,20.8,7.4c10.2,4,19,7,19,7l-9.7,1.7
		l-15-5.6l-4.5,1.3c0,0-2.6-4.9-4.8-4.4c-2.2,0.5-2.7,1.4-2.7,1.4s-5-4.8-10-1.4c0,0-4.3-5.6-11.6-1.5l-1.2,1c0,0-1.7-5.1-8.1-0.8
		l-1.3,1.3c0,0-6.7-4.7-9.1,1c0,0-5.5-0.4-5.5,2.8c0,0-4,0.8-4.4,3.5l1.4,2.5l-8.4-3.8l-1,0.1l-1.6-1.3L530,279.1z"/>
	<path d="M617.5,197c0,0,4.3-0.2,7.3,0.6c5.9,1.6,2.9,1.1,2.9,1.1l-2.7,3.1h-3.3L617.5,197z"/>
	<path class="st16" d="M605.2,198.5c0,0,5.8,0.7,7-1.4c0.2-0.3,1.8,1.7,7.5,3.4c5.7,1.7,13.9-0.1,13.9-0.1l5.3,2.4l2.5,4.6
		l-13.6,0.1l-17-2.8l-5.6-3.3V198.5z"/>
	<path class="st16" d="M516.4,195.9c0,0,13.9-3.6,14.2-3.7c0.3-0.1,3.9-1.6,9.9-0.6s8.5,1.9,8.5,1.9l6.7,2.9l1.6,4.9l-13.9,1.6
		l-18.7-0.3l-6.9-2.3L516.4,195.9z"/>
	<path class="st3" d="M560.7,241.2c0,0,8.4-4.4,11-2.4s5.8,6.5,8.5,7.1s7-2.3,9.1-3.2s9.4-2.1,12.6,1.6s3.6,8.5,0.8,8.5
		s-8-3.9-10.9-3.4s-7.6,3.9-9.2,3.9s-8.8-0.4-9.2-4.8s-7.8-4-8.8-3.5s-4,1.5-4,1.5l3.4,2c0,0-20,4.6-16.9-11.1c0,0,1.6-6,2.8-7.5
		s8.5-5.4,8.5-5.4s-3.8,7.4-3.8,9.8S554.8,242,560.7,241.2z"/>
	<path class="st3" d="M617.8,159l-14.3,6l-2,3.8l-2.3,2.3l3,2.3l-8,6.5l5,5.3l-5,5.5l5,5.5l-2,3l3.8,7.8c0,0,2.3,7.3,12,8.5
		s15,1.5,15,1.5h10c0,0-25.3-4.5-28.3-6.8s-9-8.5-9-8.5s0-4,3-5.8s6-1.3,6-1.3l3.8-1.7l-3.8-3.3l6.4-1.6l-2.6-3.8h9l-2-6.9
		c0,0,12.3-2.4,21.8,0s12.1,4.7,12.1,4.7L639,160.5l2.5-1.5H617.8z"/>
	<path class="st3" d="M522.3,202.7l-4,1.3l7.5,1.8c0,0,5.3,0.8,5.8,0.8s5.2,0,5.2,0h8.7l11.2-2l-23.3,13.7l8.5-9
		c0,0-16.5-0.2-17.2-0.2s-11.7-4.3-11.7-4.3l-6-5.8l10.5-1.9c0,0,17.7,5.9,34,2.7l5.2-0.7l-4.5-3.7l-5-2l-2.2-1.7h7.3h1.5l-2.5-4
		l-4.8-3.8l2.2-1l0.3-4.7h-6.8l2.8-2.8l-5.2-3.8l-12.3-2.3h-3.8l-20.2,4l-6.4,2.9l10.4-12.7l11.7-7.9h12.5l1.7,2.2l7.8-0.8l2-2.2
		l2.7,2.2h3.8l7,0.7l2,3.8l6,2v3.5l7.7,3.6l-1.6,2.7l2.2,3.8l-0.6,2.2c0,0,3.8-4.3,1.8,1.7s-6.8,11.8-6.8,11.8l3.5,4.4l-5.2,4.4
		c0,0-20.5,3.8-24.8,3.3C536.5,204.4,522.3,202.7,522.3,202.7z"/>
	<path class="st17" d="M765.5,702.2l23.7-5.7c0,0-2,4.5-2.2,10.9c-0.2,6.4-3.3,7.4-3.3,7.4s1.3,4.5,3,9.7s-0.2,11.3,0.7,18
		c0.8,6.7,0.7,22.8,0.7,22.8s6.3,1,6.2,2s-2.3,6.7-2.8,8.3c-0.5,1.7,3.8,15.5,2.2,18.7c-1.7,3.2-2.7,11.7-2.2,15.3
		c0.5,3.7,0,15.8,0,15.8l5.3-3.7h9.2c0,0-4.8,10.8-4.8,13.8s4.1,22.6,4.8,24.3s-9.3,9.3-9.3,9.3s1.1,20,4.1,21.3s7-2.8,7-2.8
		s-5,11.5-3.8,16.5s5.8,18,5.8,18l5.9-6.3l4.1,19.3l-1.8,11.2l7.3-5v11.8l10.3-3.3c0,0-30.4,23-33,23s-7.1-32.5-7.1-32.5
		s-15.5-36.8-15.5-65.8s-12.3-112.3-12.3-112.3l-5.5-39.3L765.5,702.2z"/>
	<path class="st3" d="M314.5,693.2c0,0,8.3,4.6,8.8,10.6s-1.5,23-2.5,26s-1.8,0-1.8,0s1.7,8.5,0,13.8s-14.7,33.8-16.4,38
		s-17.5,20-17.5,20s-1.5,7.3,0,11.8s0.7,17.5-0.7,21.8c-1.3,4.3-5.6,17-5.6,17l3.4,25.7l1.5,4l9.6-44.2l6.3-28.5l13.3-26l7.5-22.3
		l8-37.8l3-25v-2.3l-34.9-15.1l17.1,16.6l4.3,4.8L314.5,693.2z"/>
	<path class="st3" d="M221.1,678.4c0,0-4,23.7-4,34c0,10.3-4.7,22.3-4.7,30.7s-5.3,55.7-5.3,55.7s-3.7,17.3-3.3,23.3
		s2.3,42.3,1.3,50s-0.2,44.6-0.2,44.6l31.6,27.2c0,0,25.5,0.6,32.5-0.6S230.5,932,228.1,922c-2.3-10-1-16.3-1-19s-0.7-8.7-0.7-8.7
		s9-20,10.3-24c1.3-4-27.3-27-15-41s24.3-44.7,24.3-44.7l-0.7-17l4.3,3.3c0,0-2.7-27.7,1.3-33.7s8.3-36.5,8.3-36.5l7.5-23.4
		l-45.5-4.8L221.1,678.4z"/>
	<path class="st18" d="M328.9,698c0,0-2.3,21.7-2.3,28.3c0,6.7-10,44.3-14.3,53c-4.3,8.7-17.7,31.2-16.3,36
		c1.3,4.8-2.1,15.5-3.1,19.4c-1,3.9-6.2,12.2-5.6,17.3s-5,25.7-5,25.7l13.6,35.9c0,0-8.2-52.3-2.2-68.9c6-16.7,8-26.7,8.3-28
		c0.3-1.3,18.4-37.4,21.4-47.3c2.7-8.9,8.4-28.3,9.7-34.2c0.2-0.7,0.6-8.6,1-9.2c0.5-0.7-0.3-7.9,1.3-10.2c0,0,1.9-14,1.8-15
		s2.1-15.5,2.1-15.5l-42.1-4.7C297,680.7,329,697.1,328.9,698z"/>
	<path class="st18" d="M273.8,829.2c0,0-11,10.7-11.3,15c-0.3,4.3,0,7,0,7s2.7-2.2,7.4,1.5c4.6,3.7,4.6,3.7,4.6,3.7
		s-4.3-5.3-3.3-8.7c1-3.3,7.7-23.5,7.7-23.5L273.8,829.2z"/>
	<path class="st18" d="M755.2,763.2c0,0,4.9,21,6.2,25c1.5,4.7,4.9,24.7,5.3,27.6c0.5,2.8,5.9,29.6,5.9,29.6l5.2,29l0.3,8.3
		l3.2,12.7c0,0,1.5-15.8,5-21.3s2.9-11,2.9-11l-3.9,3c0,0-5-9.5,0-16.5s6-16,6-16l-8.5,5.5c0,0,0.5-7.5-1.5-16s-3-3.9-2-12.5
		c1-8.5,0-18,0-18l-2-11.3l-8.3-18V751l-3.7-16.5c0,0-2.5-21.2,0.2-23.7c2.7-2.5,5-9.8,5-9.8l-20.3,4.9L755.2,763.2z"/>
	<path class="st19" d="M757.8,704.8l-12.9,2.4c0,0-2.9,8.5-2.1,11.1c0.7,2.6,5.9,23.2,7.4,26.2s4.5,16,4.9,17.3s2.2,8.2,2.2,8.2
		l3.4,15.6l4.4-18.4l6.8,8.5c0,0-7-10.7-8-18.3c-1-7.7-2.2-10.3-2.2-10.3s-2.8-8.7-2.8-10.5s0.5-18,0.5-18l2.2-4.5l0.9-10.4
		L757.8,704.8z"/>
	<path class="st18" d="M781.3,895.4c0,0,3.3,25.7,4.5,28.7s2.3,12.3,4.3,17s5.7,18.6,5.7,18.6l3.7,15.7c0,0,8.9-6.3,10.4-7.3
		c1.5-1,1.8-3.4,1.8-3.4l-2,0.8c0,0-5.4-5.2-3.4-7c2-1.8,5.4-10.8,5.4-10.8l-3.9,3.7c0,0,0.2-7.5,0.2-9.2s-0.7-14.2-0.7-14.2
		l-4.5,7.5c0,0,1-9.5,0.8-10.8s-4.3-13.2-4.3-13.2l-2.8,8.3L781.3,895.4z"/>
	<path class="st18" d="M784.8,910.5c3,4.5,4.8,12.8,4.8,12.8l-4-23l-4.3-15.8l-1.5-7.3V892l4.9,19.7L784.8,910.5z"/>
	<path d="M269.3,955.1l-4.9,4.3l4.9,3.4l5.3-3.9l2.1,2.5l-9,5.7l-10.5-7.1l11.2-9.9l6.2,4.1l8.1-6.9h0.8l7.8,2.5L273.9,963l0.7-3.7
		C274.5,959.3,272.7,958,269.3,955.1z"/>
	<polygon points="293.3,951.8 280.8,963.4 291.9,972 291.6,976.4 279.4,975 284.8,978.6 293.3,979.4 293.3,983 294.9,984.4 
		298.2,952.2 293.6,950.8 	"/>
	<polygon points="270.5,968.3 278.2,963.2 285.7,969.4 278.1,973.5 277.2,973.9 276.8,973.6 276.2,973.1 275.3,972.4 281.2,969.1 
		278.1,966.3 273.2,969.4 278.1,972.8 275.5,973 269.6,968.8 	"/>
	<polygon points="281.9,974.6 288.2,971.5 292,973.7 291.6,976.3 281.4,975.5 	"/>
	<polygon points="291.1,950.8 278.3,961.4 279.4,961.8 292.5,951.3 291.4,950.8 	"/>
	<path d="M267.9,946.6l7.1,5.3l5.7-5.3c0,0-10.5-2-11.1-2s-5.3,0-5.3,0L267.9,946.6z"/>
	<path d="M267.2,948.8L255.9,959l-11.3-8.8l8.7-5.6l2.6,2.1l-5.7,3.4l5.7,4.4l5.3-3.8l-8.4-5.3c0,0,1.9-1.2,4.3-1.2
		c2.4,0,9.7,4,9.7,4"/>
	<polygon points="237.2,944.9 251.7,944.4 242,949 236.8,945 	"/>
	<path class="st20" d="M514.6,157c0,0-3.7,1-5.5,3.2c-1.8,2.2-10,9.3-10,9.3l-3.2,7.6c0,0,8.2-6.6,11.3-7.5c3.2-0.8,8.7-1.8,8.7-1.8
		l-0.2-1.2c0,0,4.7,0.8,8.2,0.2c3.5-0.7,7.8-0.5,9.2-0.2c1.3,0.3,9.2,2.8,10,3.2c0.8,0.3,4,1.2,4,1.2l4.3,2.7l10.1-5.3v-3l-5.6,2.4
		l-4.4-6.2l-1.3,2l-5.5-4l-2.3,1.2l-6.7-0.7l-6.1-0.9l-0.9-0.1h-5.1l-0.2-1.7l-4.3,0.7C519.1,158,513.5,157.9,514.6,157z"/>
	<path class="st20" d="M612,166l1.4,2.8l-0.7,3l-2.9,1.8v2.5c0,0,7.3-1.8,8-1.8s6.4-1,6.4-1l9,0.3l7.6,3.6h1.5l11.4,6.8l2.3,1.1
		l-2.5-5.3l-3-6.3l-1.7,0.5l-4.5-5.7l-1.5,0.8c0,0-2.5-3.8-3-4.2s-5.7-1.5-5.7-1.5l2.3,1.5h-3.6l-5-0.5l2.3,0.5l-6.2-1.5h-5.5
		l2.5,1.5l-4,1.1L612,166z"/>
	<path class="st18" d="M512.5,197.2c0,0,9.5-3.3,10-3.3s0.7,1.7,0.7,1.7l-1.2,1.7l2,1.5c0,0,3,1,12.7,1.2c9.7,0.2,14.8,0,14.8,0
		s0.4-4.6-2.4-5.8s-6.9-1.1-6.9-1.1s5.5-0.5,7.3,0c1.8,0.5,3.7,1.8,3.7,1.8l2.9,2.3v2.7h1.3l-16,1.6h-8l-11.8-1.5l-12.2-0.3
		L512.5,197.2z"/>
	<path class="st3" d="M489.5,144.4l5.5-2.3l2.3-0.8h6l2.7-3.2v2l2.4-1.6l11.1-2l2.7-1.4l-1.3,4h4.5l-0.7,2.7l8.7-5.2h5.3l17.5-7.8
		l5.6-4.5l10.2-2.4l1.9-1.9l3.5-1l6.3,0.9l10,0.3l3.7,1.7l17.7-3.5l5.3,3.1l0-1.7l6.4,3.9l9.4,8.1l6.9,6.3l8.5,6.3l-13.8-8.7
		l-13.5-6.8l-11.7,1.3l-1.5-3.3l-22.7,0.3l-14,1.8l-4.6,2.1l3.2,0.8l-18.8,4.9l-16.5,3.7v1.5l7,6.7l10.8,12l-14-2.5l-11.8-1
		l-8.2-1.3l-11.3-0.8l-6.8,2.2l0.3-5l-15.7,7.8l-4.2-6.1c0,0,4.6-4.9,4.6-6.6S489.5,144.4,489.5,144.4z"/>
	<path class="st21" d="M651.3,146.2c0,0,1.3,1.6,3.1,3.5c1.8,1.9,3.9,8.4,3.9,8.4s-1.8,6.6,0,9c1.8,2.4,7,16.6,7,16.6l1.5,2.3v39.5
		l4.3-7.2c0,0-1.1,13.3-1.2,15.8s-7.1,58.9-8.1,60.2c-1,1.3,0.2-29.4,0-42.8c-0.2-13.4-1.8-18.1-1.8-18.1l-7.2-6.4l-3.2-3.3l3-2.8
		l-0.5-3.3l9-0.8c0,0-5.7-14.9-4.3-18.8c1.3-3.8-1.3-20.5-2.4-21.8c-1.1-1.3-10.9-14.7-10.9-14.7l6.2,2c0,0-0.3-2.5-1.2-4.5
		c-0.8-2-2.5-6.5-2.5-6.5l-4.7-9.7l-2.1-6.2L651.3,146.2z"/>
	<path class="st3" d="M671.1,229.1c0,0,4.1-9.5,5.6-8.6s-0.7,5.7-1.1,7.7s-0.7,9.7-0.7,9.7S676,227.5,671.1,229.1z"/>
	<path class="st3" d="M668.8,243.9c0,0,3.3,7.5,2.5,11.6s-2.5,22.1-2.5,22.1s-0.7-9.8,0-11.5s-2.8,3.7-2.8,3.7l1.6-25.9H668.8z"/>
	<g>
		<path d="M557.3,225.5c-0.9,0.8-1.7,1.5-2.5,2.4c-0.8,0.8-1.6,1.6-2.3,2.5c-1.4,1.8-2.6,3.7-3,5.9c-0.3,2.1,0.5,4.4,1.7,6.2
			c0.6,0.9,1.4,1.7,2.4,2.4c0.5,0.3,1,0.6,1.5,0.8c0.5,0.2,1.1,0.3,1.7,0.2c-0.5,0.3-1.2,0.2-1.7,0.1c-0.6-0.1-1.1-0.3-1.7-0.6
			c-1.1-0.6-2-1.4-2.7-2.3c-1.4-1.9-2.4-4.3-2.1-6.8c0.5-2.4,1.8-4.5,3.4-6.2C553.5,228.2,555.3,226.7,557.3,225.5z"/>
	</g>
	<path d="M558.4,245c0,0,5-4.5,8.1-4.8s8.3,2.9,8.2,3.3s-6.4,1.1-7.7,0.8s-3.5-0.9-3.5-0.9L558.4,245z"/>
	<path d="M589.3,245.8c0,0,2.1-3.6,5-3.2s5.4,2.9,6,3.2s1.6,2.7,1.6,2.7s-2.3-1.3-4.5-1.3S588.9,248.9,589.3,245.8z"/>
	<path class="st21" d="M583.3,190c0,0-5,9-2.5,11.5s4.5,5.7,4.3,9.1c-0.3,3.4-2.5,7.7-2.5,7.7l-1.8,8.4l1.8,6.8c0,0,6.2-2,8,0
		s6.1,4.6,7.3,6.7c1.2,2.1,6.8,5.4,6.8,7.5c0,2.1,0,3.8,0,3.8s5.5-6.4,3.8-9.9s-10.7-8.3-11-10.6s-4.9-5.6-4.9-5.6l-3.3-12.3v-7.8
		l-1.7-21.5L583.3,190z"/>
	<path class="st3" d="M526.1,249.7c0,0-12.1,12-12,17.7l1.3,8.2l4.9,3.4l1.7-15.9l1.4-3.1l0.6-2.6l6.8-8.9L526.1,249.7z"/>
	<path class="st3" d="M514.8,273.2c0,0-0.5,3.5,0,4.5s0,3.5,0,3.5h1.8v3.8l4.4,2.9l3.9,3.1l-3.4-7.6l-1.1-4.8l1-3.4l-2.1-0.6
		L514.8,273.2z"/>
	<path class="st3" d="M624.4,260.1c0,0,3.8,6.8,4.3,8.1c0.5,1.3,1.3,3.5,1.3,3.5l1.7,4.5c0,0,0.8,8,0,9.2c-0.8,1.2-3.5,3.7-3.5,3.7
		v1.9l-1.4,11.1l6.1-5.3l1.3-5.8c0,0,4.4-10.1,3.9-12.9s-8.1-17.9-8.1-17.9l-9.6-6.8L624.4,260.1z"/>
	<path class="st3" d="M648.8,263.8c0,0-0.5,13.3,0,13.9s-0.2,9.9-0.2,9.9l-2.9,11.8l-3.3,6.3l9-17l3.9-9.5l-3.4,4.3L648.8,263.8z"/>
	<polygon class="st18" points="634.9,203.3 636,206.7 628.1,207.7 610.3,204.8 607.2,203.3 610.8,205.5 619.4,207.7 628.4,209.3 
		639.8,208.7 644,208.5 644.8,207.5 638,203.3 631.8,199.8 	"/>
	<path d="M510.5,198.3c0,0,7.4-4.4,10-5.3s3.8-1.6,3.8-1.6h2.6c0,0,2.9-0.4,4.7-0.3c0.6,0,1.1,0.1,1.3,0.3c0.8,0.7,0.8,1.9,1.8,2.1
		s3.2,0.8,3.7-0.5c0.5-1.3-0.3-1.1,2.8-1.5c3.1-0.4,9.7,1.4,10.1,1.5s8.5,5.3,8.5,5.3s-6.6-2.3-8.7-3.6s-6.8-1.7-6.8-1.7l-2.1,1.7
		c0,0,0.9,4.9-2.2,5.4c-3.1,0.5-12.4,0.8-12.6-0.7c-0.2-1.5-1.1-4.4,0-5.5l-2.3-0.1l-2.2,1L510.5,198.3z"/>
	<path d="M597.4,201.1c0,0,7.9-3.3,10.7-3.9c2.7-0.6,4-1,4-1l2.6,0.4c0,0,5.3,0,6,0.8c0.7,0.8,0.5,2,1.5,2.3s3,1.2,3.7,0
		s-0.1-1.1,3-1.1c3.1,0.1,9.4,2.7,9.8,2.9c0.4,0.1,7.7,6.4,7.7,6.4s-6.2-3.2-8.2-4.8c-2-1.6-6.5-2.6-6.5-2.6l-2.3,1.4
		c0,0,0.2,5-2.9,5c-3.1,0.1-12.4-0.9-12.3-2.5c0-1.5-0.5-4.5,0.8-5.5l-2.2-0.4l-2.3,0.7L597.4,201.1z"/>
	<path class="st16" d="M619.5,198.1l1.4-0.7l3,0.3l0.6,0.6l-0.9,0.8l-1.2,0.2C622.5,199.4,619,198.7,619.5,198.1z"/>
	<path d="M537,191.1c0.1,0,3.9,0.5,3.9,0.5l0.9,0.7h-1.4l-1.5-0.3l-2.9-0.3l-4.1,0.6l0.8-0.7l0-0.3L537,191.1z"/>
	<path class="st21" d="M487.1,168.8l-6.6,15.3v7l5.3-7l1.3-1.3l-1.1,8.3l-0.3,7.8l5-3.4c0,0-6.1,12.1-6.4,15.2
		c-0.3,3.1-1.3,7.7-1.3,7.7l4.1-1.6l0.9,1.6l12.5-5.1l3.5-2.6l5.3,2.9l-13.3,8.8l6.1,2.3l9.8-2.5v-1.6l10.7,1.1l4.8-3.2v4.4
		l11.4-4.4l16.4-12.8l-4.3,9.4l4.3-0.8l-8.2,7.3h2l-6.9,7.1l-0.5,0.6l-5.5,3.9h5.5c0,0-10.9,4-13.3,5.9s-10.4,3.7-10.4,3.7v3.3
		l1.9,2.6l-5.5,7.8l-6.4-4.7l-1.3,1.7l-2.3-4.8c0,0-2.5,0.5-3.3,1.3s-6-1.3-6-1.3s-4,0.4-5,3.1c-1,2.7-5.7,7.2-5.7,7.2l2.8,5
		c0,0-7.4-1.9-11.3-17.8s-6.8-32.1-4.8-34c2-1.9,2.9-10.4,2.9-10.4l-0.1-18.2l9.6-19.8l10.4-4.4L487.1,168.8z"/>
	<path class="st3" d="M506.8,195.4c0,0,12.3-7.7,17.5-8.8c5.2-1.1,22.5,0,22.5,0s-2.7-3.9-4-4.4c-1.3-0.5-1.3-0.5-1.3-0.5l-1.7-3.3
		l-0.5-2.5l-11.1,3.7l-5.6,1.2l2.3,1l-12.1,6.2l-8.3,3.2l-4.8,9.2L506.8,195.4z"/>
	<polygon class="st3" points="625.3,188.1 631.6,191.6 634,191.1 636.1,193.7 642.2,198.2 640.6,198.2 646.3,203.9 639.2,201.5 
		635.8,198.2 630.6,193.7 623.4,191.1 617.5,188.1 	"/>
	<path class="st22" d="M598.7,278.7c0,0,11.1,5.1,13.1,5s4.3,1,6.5,0.4s6.3,0.6,6.3,0.6s-3.2,1.2-3.2,1.9s-4.4,1.8-4.4,1.8
		s-6.6,0.4-8-1.1s-2-0.9-2-0.9s-1.2-2.9-2.5-2.9s-1.4-0.1-1.4-0.1l-0.8-2.4l-6.2,1.1l-12.3-6.7L598.7,278.7z"/>
	<g>
		<path d="M670.5,220.1c-1.1,12.4-2.2,24.9-3.5,37.3c-0.6,6.2-1.3,12.4-2.1,18.6c-0.4,3.1-0.8,6.2-1.2,9.3c-0.2,1.5-0.5,3.1-0.8,4.6
			c-0.3,1.5-0.6,3.1-1.2,4.5c0.6-1.4,0.8-3,1.1-4.5c0.3-1.5,0.5-3.1,0.7-4.6c0.4-3.1,0.8-6.2,1.1-9.3c0.7-6.2,1.3-12.4,1.8-18.6
			c1.1-12.4,2.1-24.9,3-37.3L670.5,220.1z"/>
	</g>
	<path class="st3" d="M455.7,228.9c0,0,1-4.6,3.4-4.4s4,3.1,2.3,5.6s-7.4,12.8-7,14.9s5.9,7.4,5.9,7.4s8.1,2.3,6.2,4.6
		s-6.5,2.6-7.4,0s-9.1-7-9.3-9.8s6.6-10.4,6.5-13.1S455.7,228.9,455.7,228.9z"/>
	<path class="st19" d="M454.2,194.8l5.2,7.1l7.9,4.7l-0.6,9.4c0,0-0.4-2-1.6-4.4s-4.3-4.8-4.3-4.8l-3.5-3.4l-3.1-4.2
		c0,0-6.9-2.9-8.5-2.6s-3.5,1.4-3.5,1.4S446.6,191.1,454.2,194.8z"/>
	<path class="st21" d="M452.6,203c0,0,0.7,7.6,2.1,8.5s2.6,6.4,2.6,6.4s-12,10.2-11.6,13.5c0.4,3.3-2.9,3.4-0.9,7.5s3.7,9,3.7,9
		s-9.5-5.1-5-20.4s7.1-17.5,7.3-19.4s-1-8.2-1-8.2l-1.8-1C448,198.8,453.5,197.3,452.6,203z"/>
	<path class="st3" d="M454.7,256l3.5,1.8v2.2l6.9,7.4c0,0-4.1-3.4-6.9-4.4c-2.8-1-5.9-1.3-5.9-1.3l-0.7-7.5L454.7,256z"/>
	<path class="st3" d="M446.8,261.5c0,0,6,4.7,6.5,5.9c0.5,1.3,2.4,4.5,4.9,5.7s6.9,1.4,6.9,1.4l3.8,2.1c0,0-10.8,1.5-15.3-3.5
		S449,266,449,266L446.8,261.5z"/>
	<path class="st23" d="M441,210.1c0,0-5.5,15.7-5.2,17s8.1,27.8,10.8,29.9c2.6,2.2,8.1,13.3,8.1,13.3l12.2,7.4c0,0-4.5-0.1-5.9-0.6
		c-1.4-0.5-9.5-7.5-10.8-10.3c-1.3-2.8-7-14.1-7-14.1l-9.3-27.1C433.9,225.8,439.6,209.4,441,210.1z"/>
	<path class="st19" d="M437.2,210.8c0,0,3.9-14.2,8.5-11.7c4.6,2.5,2.5,9.4,2.5,9.4s-5,12.6-5.3,14.5s-4.6,10.3-2.6,15.9
		s9.5,17.1,9.5,17.1s-11.1-9.5-11.3-12.5s-2.9-9.1,0.3-18S452,190.7,437.2,210.8z"/>
	<path class="st19" d="M461.8,229.2c0,0,2.8,4.6,3.3,7.2s1.3,17.8,1.3,17.8l-1.3,1.8l-5-3.6l-5.9-7.4
		C454.3,245,457.8,231.2,461.8,229.2z"/>
	<path class="st3" d="M479,368.8l-6.4,5.7l-6.8,4.4c0,0,4.5,14.6,16.5,21.5l3.9,3.6c0,0,17.5,9.5,23.1,10.8
		c5.6,1.3,12.3,5.5,23.6,6.9s20.5,1.9,20.5,1.9h8l-13.5-4.8l13.5,0.9c0,0-16.6-7.1-18.3-9.4c-1.6-2.3,20.8,5,20.8,5l-5.8-5l17.4,5.3
		l-10.3-10.6L479,368.8z"/>
	<path class="st19" d="M473.1,258l10.4,66.1c0,0,10.2,15.3,12.4,16.3c2.2,1,1.4,5.8,1.4,5.8l6.3,4.7l6.8,6.4L521,368
		c0,0,25.3,13.7,27.5,14.5c2.2,0.8,22.1,2.4,22.1,2.4l-5.5-2.6l19.4,2.6l5.7-1.6l-4.1-2l10.5-3.9l10.3-6.6l-5-8.7l-5.9,2.6
		l-44.7-2.4l-18-9.2l-18.8-14.1l-14.4-14.8l-16.5-21.6l-5.7-18L473.1,258z"/>
	<path class="st24" d="M534.9,285c0-0.3,0-1.9,0-2.2c1.1-1,2.2-0.3,3.3-0.1c1.3,0.4,2.6,0.7,4,0.7c0.9,0.1,1.9,0.2,2.8,0.4
		c2.6,0.8,5.2,0.6,7.8,0.2c0.5-0.1,1,0,1.5,0c2.3,0.5,4.6,0.3,6.9,0.3c0.5,0,1.1,0,1.6,0c5.5,1.4,11.2,0.6,16.8,1.3
		c2.4,0.9,4.9,0.7,7.4,0.7c2.2,0,4.4,0,6.5,0.4c3.6,1.4,7.1-0.3,10.7-0.4c1.2-0.3,2.5-0.6,3.8-0.7c1-0.1,2-0.1,3.1-0.1
		c3.9,0.5,7.4-1.1,11.2-1.4c0.5,0.1,1,0.4,1.3,0.8c-5.9,7-14.7,6.8-22.6,8.8c-7.5,1.9-15.1-0.2-22.6-0.4c-5.4-0.2-10.8-0.9-16.2-1.4
		c-6.1,1.5-14,1.8-19.2-2.6C539.2,288,537.8,287.7,534.9,285z"/>
	<g>
		<path class="st25" d="M572.8,273.5c2.1,0.3,4,1.1,5.2,3c1.6,2.2,1.1,4.4,0.2,6.7c-4,4.6-9.7,4-12.5-1.4c-0.2-2-0.3-4.1,0.3-6
			C567.6,272.9,570.2,273.1,572.8,273.5z"/>
		<path class="st26" d="M572.8,273.5c1.1,0.2,2.2,0.5,3.1,1c1,0.5,1.8,1.4,2.4,2.3c0.6,0.9,0.9,2.1,0.9,3.2
			c-0.1,1.1-0.4,2.2-0.8,3.2l0,0l0,0c-0.8,1-1.8,1.8-3,2.4c-1.2,0.6-2.5,0.9-3.8,0.8c-1.3-0.1-2.6-0.7-3.6-1.5
			c-1-0.8-1.8-1.9-2.4-3.1l0,0l0,0c-0.2-2-0.3-4.1,0.4-6.1l0,0l0,0c0.3-0.6,0.7-1.1,1.3-1.5c0.5-0.4,1.1-0.7,1.7-0.8
			C570.3,273.1,571.6,273.3,572.8,273.5z M572.8,273.5c-1.3-0.2-2.6-0.3-3.8,0c-0.6,0.1-1.2,0.4-1.7,0.8c-0.5,0.4-0.9,0.9-1.2,1.5
			l0,0c-0.6,2-0.4,4-0.2,6l0-0.1c0.6,1.1,1.4,2.1,2.3,2.9c1,0.8,2.1,1.3,3.3,1.4c1.2,0.1,2.5-0.1,3.6-0.7c1.1-0.5,2.1-1.3,2.9-2.3
			l0,0c0.4-1,0.8-2,0.9-3.1c0.1-1.1-0.2-2.2-0.7-3.1c-0.6-0.9-1.3-1.8-2.3-2.3C575,274,573.9,273.6,572.8,273.5z"/>
	</g>
	<g>
		<path class="st27" d="M578.9,276.4c3.8-3.2,6.8,0.2,10.1,1.3c1.1,1.1,1.1,2.3,0.7,3.7c-1.2,2.2-1.9,4.9-4.9,5.6
			c-1.1,0.1-2.1,0.2-3.1-0.2c-2.3-0.7-4.2-1.6-3.5-4.6C578.9,280.4,578,278.3,578.9,276.4z"/>
		<path class="st26" d="M578.9,276.4c0.7-0.6,1.5-1.1,2.4-1.3c0.9-0.2,1.9-0.1,2.8,0.2c1.8,0.6,3.3,1.7,5,2.2l0,0l0,0
			c0.5,0.5,0.9,1.1,1,1.8c0.1,0.7,0,1.4-0.2,2l0,0l0,0c-0.6,1.1-1.1,2.4-1.8,3.5c-0.4,0.6-0.8,1.1-1.4,1.5c-0.6,0.4-1.2,0.7-1.9,0.8
			l0,0l0,0c-0.8,0.1-1.7,0.2-2.5,0c-0.8-0.2-1.6-0.5-2.4-0.8c-0.7-0.4-1.5-0.9-1.9-1.7c-0.4-0.8-0.3-1.7-0.1-2.5l0,0l0,0
			c0.4-0.9,0.4-1.9,0.4-2.9C578.4,278.4,578.4,277.3,578.9,276.4z M578.9,276.4c-0.4,0.9-0.4,1.9-0.4,2.9c0,1,0.1,2-0.3,3l0,0
			c-0.2,0.8-0.2,1.6,0.1,2.3c0.3,0.7,1,1.2,1.7,1.5c0.7,0.3,1.5,0.6,2.3,0.7c0.8,0.1,1.6,0.1,2.4,0l0,0c0.6-0.1,1.2-0.4,1.7-0.7
			c0.5-0.4,0.9-0.8,1.3-1.3c0.7-1,1.2-2.3,1.8-3.4l0,0.1c0.2-0.6,0.3-1.3,0.2-1.9c-0.1-0.6-0.4-1.2-0.8-1.6l0.1,0
			c-1.8-0.6-3.3-1.8-5-2.4c-0.8-0.3-1.7-0.5-2.6-0.3C580.4,275.4,579.6,275.9,578.9,276.4z"/>
	</g>
	<path class="st22" d="M622.2,284c0.7,0.4,2.4-0.1,0.9,1.3c-4.3,1.4-10.1,1.7-14.9,1.1c-1-0.8-1-1.2-2.2-1.8
		c-1.5-0.6-2.9-1.3-4.4-1.9c-0.8-0.4-1.6-0.9-2.2-1.7c-0.2-0.4-0.2-0.8,0-1.2C606.8,281.2,614.5,284.6,622.2,284z"/>
	<g>
		<path class="st28" d="M557,276.7c2.6-1.2,5-4.1,8.1-1.1c1.3,2.1,0.7,4.4,0.8,6.6c-0.2,2.6-2.5,2.7-4.2,3.4l-0.2,0
			c-1.7-0.8-4.1-0.1-5.2-2.3C555.5,281,555.3,278.8,557,276.7z"/>
		<path class="st26" d="M557,276.7c1.4-0.7,2.5-1.7,4-2.3c0.7-0.3,1.5-0.4,2.3-0.2c0.8,0.2,1.4,0.7,2,1.2l0,0l0,0
			c0.7,1,0.9,2.2,0.9,3.3c0,1.1-0.1,2.3-0.1,3.4l0,0l0,0c-0.1,0.5-0.2,1-0.5,1.5c-0.3,0.5-0.7,0.8-1.2,1.1c-0.9,0.5-1.9,0.7-2.8,1.1
			l0,0l-0.1,0l-0.2,0l-0.1,0l0,0c-0.8-0.4-1.8-0.4-2.8-0.6c-0.5-0.1-1-0.3-1.4-0.6c-0.4-0.3-0.8-0.7-1-1.2l0,0l0,0
			c-0.4-1.1-0.6-2.3-0.5-3.5C555.7,278.7,556.2,277.6,557,276.7z M557,276.7c-0.7,0.9-1.2,2-1.2,3.2c0,1.1,0.2,2.3,0.6,3.4l0,0
			c0.2,0.4,0.5,0.8,0.9,1c0.4,0.3,0.8,0.4,1.3,0.5c0.9,0.2,2,0.2,2.9,0.6l-0.1,0l0.2,0l-0.1,0c0.9-0.4,1.9-0.6,2.7-1.1
			c0.4-0.2,0.7-0.5,1-0.9c0.2-0.4,0.4-0.8,0.4-1.3l0,0c0-1.1,0.1-2.3,0.1-3.4c0-1.1-0.2-2.2-0.8-3.1l0,0c-0.5-0.5-1.1-0.9-1.8-1.2
			c-0.7-0.2-1.4-0.2-2.1,0.1C559.6,275.1,558.4,276.1,557,276.7z"/>
	</g>
	<g>
		<path class="st29" d="M547.5,277.4c2.2-3.2,5.5-1.8,8.3-0.7c1.3,2.5,0.4,5.1,0.5,7.7c-0.7,0.9-1.5,0.7-2.4,0.5l-0.5,0L553,285
			c-1.7,0.1-3.4,0.3-5-0.1c-1.4-1.4-1.3-3.1-1.2-4.8C546.9,279.2,546.9,278.1,547.5,277.4z"/>
		<path class="st26" d="M547.5,277.4c0.4-0.6,1-1.2,1.7-1.5c0.7-0.4,1.5-0.5,2.2-0.4c1.6,0.1,3,0.7,4.5,1.2l0,0l0,0.1
			c0.6,1.2,0.8,2.5,0.8,3.9c0,1.3-0.2,2.6-0.2,3.9l0,0.1l-0.1,0.1c-0.3,0.4-0.8,0.7-1.3,0.7c-0.5,0-1-0.1-1.4-0.2l0.1,0l-0.5,0
			l0.1,0l-0.5,0.1l0,0l0,0c-1.7,0.1-3.4,0.2-5.1-0.3l0,0l0,0c-0.6-0.6-1-1.5-1.1-2.3c-0.1-0.9,0-1.7,0-2.6l0,0
			c0.1-0.5,0.1-0.9,0.2-1.4C547,278.2,547.2,277.8,547.5,277.4z M547.5,277.4c-0.3,0.3-0.5,0.8-0.5,1.3c-0.1,0.5-0.1,0.9-0.2,1.4
			l0,0c0,0.9-0.1,1.7,0,2.6c0.1,0.8,0.6,1.6,1.2,2.2l-0.1,0c1.6,0.4,3.3,0.1,5,0l0,0l0.5-0.1l0,0l0,0l0.5,0l0,0l0,0
			c0.4,0.1,0.8,0.2,1.2,0.2c0.4,0,0.7-0.2,0.9-0.6l0,0.2c0-1.3,0.2-2.6,0.2-3.9c0.1-1.3-0.1-2.6-0.6-3.7l0.1,0.1
			c-1.4-0.6-2.8-1.2-4.4-1.4c-0.8-0.1-1.5,0.1-2.2,0.4C548.5,276.3,547.9,276.8,547.5,277.4z"/>
	</g>
	<g>
		<path class="st30" d="M548,277.8c0,0.6,0,1.3,0,1.9c-1.1,1.5,0,3.4-0.8,5c-0.7,0.5-1.4,0.4-2.1,0.3c-1-0.2-2-0.4-2.9-0.6
			c-1-0.9-1.4-2-0.8-3C542,278,545,277.5,548,277.8z"/>
		<path class="st26" d="M548,277.8l0.1,1.9l0,0l0,0c-0.5,0.7-0.5,1.6-0.4,2.4c0.1,0.8,0.2,1.8-0.3,2.6l0,0l0,0
			c-0.3,0.2-0.7,0.4-1.1,0.4c-0.4,0-0.8,0-1.2,0l0,0l0,0l-2.9-0.6l-0.1,0l-0.1,0c-0.4-0.4-0.8-0.9-1-1.5c-0.2-0.6-0.1-1.3,0.2-1.8
			l0,0.1c0.2-0.7,0.4-1.4,0.9-2c0.5-0.6,1.1-1,1.8-1.3C545.1,277.6,546.6,277.6,548,277.8z M548,277.8c-1.4-0.1-2.9,0-4.1,0.5
			c-0.6,0.3-1.2,0.7-1.6,1.3c-0.4,0.5-0.6,1.2-0.8,1.9l0,0l0,0c-0.3,0.4-0.3,1-0.1,1.5c0.2,0.5,0.5,0.9,0.9,1.3l-0.1-0.1l2.9,0.6
			l0,0c0.7,0.1,1.5,0.1,2-0.3l-0.1,0.1c0.4-0.7,0.3-1.6,0.3-2.4c0-0.4,0-0.9,0.1-1.3c0.1-0.4,0.3-0.9,0.5-1.2l0,0L548,277.8z"/>
	</g>
	<g>
		<path class="st31" d="M604.4,281.4c1.3,0.6,1.8,0.4,3.1,1c0.8,1,1.3,3.2,0.5,4.2c-1,0.3-1.9,0.9-3,0.8c-1-0.2-2,0-2.4-1.1
			C602.7,284.6,602.1,282.2,604.4,281.4z"/>
		<path class="st26" d="M604.4,281.4c0.5,0.2,1,0.3,1.6,0.4c0.5,0.1,1.1,0.2,1.6,0.5l0,0l0,0c0.5,0.6,0.8,1.4,0.9,2.1
			c0.1,0.4,0.1,0.8,0.1,1.2c0,0.4-0.1,0.8-0.4,1.2l0,0.1l-0.1,0c-0.5,0.2-1,0.4-1.5,0.6c-0.5,0.2-1.1,0.3-1.6,0.2l0,0l0,0
			c-0.4-0.1-0.9-0.1-1.4-0.2c-0.3-0.1-0.5-0.2-0.7-0.4c-0.2-0.2-0.3-0.4-0.4-0.7l0,0l0,0c0.1-0.9,0-1.9,0.2-2.8
			c0.1-0.5,0.3-0.9,0.6-1.3C603.5,281.8,603.9,281.5,604.4,281.4z M604.4,281.4c-0.4,0.2-0.8,0.5-1.1,0.8c-0.3,0.4-0.4,0.8-0.5,1.2
			c-0.2,0.9,0,1.8-0.1,2.8l0-0.1c0.2,0.4,0.5,0.7,0.9,0.8c0.4,0.1,0.9,0.1,1.4,0.2l0,0c1,0.1,1.9-0.5,2.9-0.8l-0.1,0.1
			c0.4-0.5,0.4-1.3,0.3-2c-0.1-0.7-0.4-1.4-0.8-2l0.1,0.1c-0.5-0.2-1-0.4-1.5-0.6C605.4,281.9,604.8,281.7,604.4,281.4z"/>
	</g>
	<g>
		<path class="st32" d="M608,286.8c0-1,0-3.2,0-4.2c3.3-0.3,2.8,2.9,3.9,4.1C608.6,287.7,609.4,286.8,608,286.8z"/>
		<path class="st26" d="M608,286.8c-0.1-1.3-0.2-2.7-0.2-4.2l0-0.2l0.2,0c0.5,0,1.1,0,1.6,0.2c0.5,0.2,1,0.7,1.2,1.2
			c0.3,0.5,0.4,1,0.6,1.5c0.2,0.5,0.3,1,0.6,1.3l0.2,0.3l-0.3,0.1c-0.6,0.2-1.3,0.3-2,0.4c-0.3,0-0.7,0-1-0.2
			C608.6,286.9,608.3,286.8,608,286.8z M608,286.8c0.3,0,0.7,0,1,0.2c0.3,0.1,0.6,0.1,0.9,0.1c0.6-0.1,1.3-0.3,1.9-0.5l-0.1,0.3
			c-0.4-0.4-0.6-1-0.7-1.5c-0.2-0.5-0.3-1-0.6-1.4c-0.2-0.4-0.6-0.8-1-1c-0.4-0.2-0.9-0.2-1.4-0.2l0.2-0.2
			C608.1,284,608.1,285.3,608,286.8z"/>
	</g>
	<path class="st32" d="M535.4,283.5c-0.2-1.5,0.4,0,0.2-1.5c3.2-1,2.7,0.8,3.5,2.2C537.9,284.2,536.5,283.6,535.4,283.5z"/>
	<path class="st33" d="M189.5,953.7c-0.1-2.3,0-54.2,0-54.2"/>
	<path class="st34" d="M190.7,904c0,0,37.1,35.9,43,38.3l1,2c0,0-17-3.6-43.3,7.6L190.7,904z"/>
	<path class="st3" d="M204.9,916.6l3.1,29.7c0,0,22.3-3.2,27.6-2.4s0-9.8,0-9.8l-24.5-20.5L204.9,916.6z"/>
	<polygon class="st34" points="190.7,896.6 190.7,910.5 205.8,929.4 204.9,916.6 204.3,905.9 	"/>
	<path d="M282.2,977.8l-76.4,6.5l-0.6-0.2c0,0-16.2-14.6-16.5-17c-0.3-2.5,0-12.3,0-12.3s1.3-2.1,4.7-3.2l-2,5.5l13.6,11.3l-3.6,6.6
		l4.5,2.4l76.4-2.4l2.6,3.5L282.2,977.8z"/>
	<path class="st3" d="M208,946.3l7.8,31l63.5-2.3l-44.7-30.6C234.7,944.4,209.3,942.8,208,946.3z"/>
	<polygon class="st3" points="240.6,942.6 240.8,944.4 231.5,945.6 225.9,944.1 	"/>
	<polygon class="st3" points="236.3,944.1 260.1,961.5 263.3,964.5 233.8,945.3 	"/>
	<polygon class="st3" points="242.3,949 243.7,948.3 245.5,949.7 243.9,950.7 	"/>
	<path d="M194.2,950.8c0,0,12.3-4.5,17.2-5.2c4.8-0.8,7.3-1.2,7.3-1.2l-11.7,9.3L194.2,950.8z"/>
	<polygon class="st34" points="194.2,950.8 207,953.7 209.5,952 215.9,977.3 205.8,977.6 201.4,975.2 204.6,968.4 191.3,957.2 
		193.3,951.7 190.7,952.9 190.7,912.1 192.9,949.9 	"/>
	<polygon points="243.9,951.7 254.5,959.7 243.3,969.2 233.4,961.3 236.8,958.5 243.9,964.5 248.6,959.7 242.3,955 235.1,961.8 
		232,960.2 242.3,950.2 	"/>
	<polygon points="231,964.2 241.7,972.2 230.5,981.7 220.5,973.8 224,971 231,977 235.7,972.2 229.4,967.5 222.3,974.3 219.2,972.7 
		229.4,962.7 	"/>
	<polygon points="258.4,963.2 268.6,970.9 257.9,980 248.4,972.4 251.7,969.7 258.4,975.5 262.9,970.9 256.9,966.4 250.1,972.9 
		247.1,971.3 256.9,961.8 	"/>
	<polygon points="223.2,946.3 233.8,954.3 222.7,963.8 212.7,955.9 216.1,953.1 223.2,959.1 227.9,954.3 221.6,949.6 214.4,956.4 
		211.3,954.8 221.6,944.8 	"/>
	<polygon points="209.4,957.8 220,965.9 208.8,975.4 198.9,967.5 202.3,964.6 209.4,970.7 214.1,965.9 207.7,961.1 200.6,967.9 
		197.5,966.3 207.7,956.3 	"/>
	<polygon points="265,976.2 270.5,971.7 277.7,976.2 	"/>
	<polygon points="223.3,944.4 231.3,943.9 239.3,950.2 235.8,953 	"/>
	<polygon points="239.6,977.6 244.6,973.1 252.4,978.2 238,978.8 	"/>
	<polygon points="193.2,952 206.4,955.2 196.3,964.5 189.5,957.8 	"/>
	<polygon points="208.7,978.1 215.9,972.2 223.3,978.1 208.7,978.3 	"/>
	<path class="st3" d="M203.8,849.2c0,0-7.9,39.6-7.5,45.5c0.3,5.9,2,52.6,2,52.6l0.8,1.7l9.7-2.9l-1.1-116.3l-3.5-1.1L203.8,849.2z"
		/>
	<path class="st3" d="M239.3,981.7l-33.4,2.6c0,0,19.4,19.3,23.1,20.5C232.6,1006,239.3,981.7,239.3,981.7z"/>
	<path class="st3" d="M269.6,978.9l-30.3,2.8l-10.3,23.1l19.7,15.8l17.7,13.1l3.6,1.9c0,0-0.2-28.2,0-30.2
		C270,1003.4,269.6,978.9,269.6,978.9z"/>
	<path class="st18" d="M282.2,878.5c0,0,1.7,32.5,2.6,33.6c0.9,1.1,3.2,21.3,3.2,21.3v14.2v1.2l9.8,2.9v-4.4l-1.4-35.9l-1.1-18.6
		l-2.4-7.6l-0.8-6.8l-3.7-10.6L282.2,878.5z"/>
	<path class="st34" d="M286.7,978.9c0,0-2.6,59.8-4.5,63.3l-0.5,0.8l-12.5-7.7l0.3-56.4l12.6-1.1L286.7,978.9z"/>
	<path class="st18" d="M286.7,978.9h8.6l-2.8,39.2l-1.5,30.4l-10.2-6.1c0,0,3.7-21.2,3.6-23.9S286.7,978.9,286.7,978.9z"/>
	<path class="st35" d="M499.8,1046.7c0,0,6.9,7.4,2.2,15.4s-12.3,27.3-12.3,27.3l-3.5,24.2c0,0,38.5,5.8,57.7,3.8l24.3-0.8l34.2-3.1
		l41.5-7.1l19-4.5l17.4-4.8l15.5-4.9l18.5-6.6l12.6-5l30.2-13.7c0,0-21.3-10.7-24-11c-2.7-0.3-55.4-28.3-55.4-28.3L499.8,1046.7z"/>
	<path d="M338.3,970.9l-6.5,15.7l9.6,18.9l1,24.3l-8.7,21.3l-0.3,20.6l30,12.8l26.3,9.3l19.1,5.7l24.2,6.1l24.7,4.8l18.4,2.8
		l11.9,1.4c0,0,37.9,2.3,42.2,2.3s20-3,20-3l-31-12.8l35.5,2.5l-31-15.3l42-2.8l-39.5-14.8l40.7-2l-49.5-17.3l-20.3-2.2l-57.8-9
		l-20.5-7.8c0,0-20.8-9.3-25.5-10.8s-23.3-12-23.3-12l-4.3-15.5l-10.3-20.3L338.3,970.9z"/>
	<path d="M526.3,950.8c0,0,20.3,53.8,67,69.2c46.7,15.4,102.6,6,102.6,6l76-33.5v21.6l5.1,13.4v8.1l1.8,13.9v4v1.8l-26.9,13.8
		l-35.6,15.6l-58.3,18.5l-42.8,8.5l-21.9,2.9l-31.6,2.4l-24.9,0.5l-23.4-2.9l-159-114.4L526.3,950.8z"/>
	<path class="st12" d="M394.7,941.2c0,0,8.9,14.7,12.9,16s22,1.1,23.7,6c1.7,4.9-29.3,60.8-37.7,62.9c-8.3,2.1-50.3,0-50.3,0
		l-8,21.1l-1.6,4l5.5,6.3c0,0,26.1-9.1,27.8-10.7s27.7,0,27.7,0s13.7-13.6,28.3-16.9s111.2-39.7,117-42.6s13-7.3,13-7.3l-16-35.9
		l-143.7-3.5"/>
	<path class="st35" d="M547,985.9l-135.1,48.2l-17.2,12.6H367l-23.8,9.3c0,0,49.8-5.1,73.8,5.9s51.5,15.5,66.5,15.5s48,0.4,78-4.8
		s66.5-12.2,66.5-12.2s-97,36.5-108.8,40.8s4.8,8.3,20.8,8.5c16,0.2,69.3-8.8,81.6-13.3s65.8-70.4,65.8-70.4l-71-9.1L547,985.9z"/>
	<path class="st12" d="M687.5,1026.1l-59.6,66.2l-58.7,17.5l-9.1,3.7c0,0,53-3,74-9s79-41,79-41s14.9-39.9,25.5-56.4
		S687.5,1026.1,687.5,1026.1z"/>
	<path class="st7" d="M831.3,947.2c0,0-4.3,17.6-3,19.3c1.4,1.7,7.1,2,7.1,2v11.7l3.3,14.7l2.3,4.2l-5.7,17.8l20.8-15.2l11.4-10
		l17-16.1l9.3-9.5c0,0-1.8-63.4-3.8-66.5S830.4,943.5,831.3,947.2z"/>
	<path class="st34" d="M885,888.7c0,0,4.9,11.4,4.5,14.9s-7.8,12-7.8,12l-36,16.8l27.5-37.1l1.2-22.4L885,888.7z"/>
	<path class="st33" d="M889.6,899.2c0,0,3.6,64.6,3.6,65.7"/>
	<polygon class="st17" points="811.7,964.7 811.7,970 815.5,970 816.8,980.8 820.3,979.3 822.7,998.2 822.7,1000.8 822.7,1009 
		827.2,1005.7 825.2,1019.3 825.2,1024.5 824.7,1026.1 841.4,1013.6 848.4,1007.2 838,1008.8 842.2,996.2 839.2,993.2 838.5,981.8 
		837.3,982.3 836.5,964.9 833.7,964.9 836.7,949.7 	"/>
	<path class="st18" d="M798.7,976.8c0,0,14.3,44.8,14.6,46c0.3,1.2,2.1,9.7,2.1,9.7l10.5-7.4l-0.8-5.4l2-14.1l-4.5,3.3v-10.8
		l-2.3-18.8l-3.5,1.5l-1.4-10.8h-3.3l-0.5-7.5l-13,11.4V976.8z"/>
	<line class="st33" x1="791.5" y1="951.6" x2="800.1" y2="979.5"/>
	<path class="st33" d="M294.7,977.8c0,0-3.2,60.5-3.3,62c-0.1,1.5-0.9,8-0.9,8"/>
	<path class="st36" d="M469,232.5c0,0-0.3,8.3,1.4,15.4c1.7,7.1,1.7,7.1,1.7,7.1v-5.1l2,2.5v-3.8l2.3,1.7l-4.6-15.9l-2.8-6.9v4.4
		V232.5z"/>
	<polygon points="295.3,980 245.2,981 274.8,977.8 282.8,977.3 295.3,977.3 	"/>
	<path class="st12" d="M551,984.3l-62,45.5l-33.5,13.2c0,0,32,14.5,54.5,14.5s111.6,4.2,111.6,4.2s-142.5,26.5-169.8,13
		c-23.1-11.4-66.9-19.3-66.9-19.3l-39.4,0.5l25-16.9l78.6-24.9L551,984.3z"/>
	<polygon class="st12" points="441.7,939.8 456.8,932.8 486,944.2 482.7,948.5 	"/>
	<path class="st37" d="M531.4,193.9v1.1h0.4l-0.4,1.3h0.8l-0.4,1.4l1.5-0.5l0.2,0.9l0.9-0.3l0.4,0l0.6,0.5l0.3-0.7l2.5,0.7l-0.3-0.9
		h0.5v-0.9l0.7-1h1.1l-0.4-1.2l1.1,1.2v1.3l-0.7,0.1l0,1c0,0-0.1,0.7-1.1,1.1c-0.9,0.5-3.2,0.8-3.2,0.8l-0.4-0.3l-1.4,0.3h-1h-1.5
		v-0.6l-1.1-0.3l-0.3-0.7l-0.7-0.8l0.2-0.8l-0.2-0.6v-1.4L531.4,193.9z"/>
	<path class="st37" d="M617.9,198.8v1.1h0.4l-0.4,1.3h0.8l-0.4,1.4l1.5-0.5l0.2,0.9l0.9-0.3l0.4,0l0.6,0.5l0.3-0.7l2.5,0.7l-0.3-0.9
		h0.5v-0.9l0.7-1h1.1l-0.4-1.2l1.1,1.2v1.3l-0.7,0.1l0,1c0,0-0.1,0.7-1.1,1.1c-0.9,0.5-3.2,0.8-3.2,0.8l-0.4-0.3l-1.4,0.3h-1h-1.5
		v-0.6l-1.1-0.3l-0.3-0.7l-0.7-0.8l0.2-0.8l-0.2-0.6v-1.4L617.9,198.8z"/>
	<path class="st38" d="M601.9,362.2l-6.5,6.7l10.8-1.4l-12.9,7l15.6-4.4c2-1.6,7.5-8.9,7.5-8.9l-1-4L601.9,362.2z"/>
	<path class="st3" d="M482.3,316.2c0,0,34.6,51.4,51,56c16.4,4.6,42.3,13.9,42.3,13.9l-31.5-1.2l-27.7-4.1L496,361.5l-12.4-18.7
		L482.3,316.2z"/>
	<path d="M188.5,956c0,0,27.4-14.7,60.1-11.1c32.7,3.5,49.6,7.4,49.6,7.4v-8.6c0,0-46.6-16.5-107.5,2.7h-1.2L188.5,956z"/>
	<path class="st3" d="M547.7,290.8c0,0,22.4,1.6,23.4,1.7s14.1,0.7,14.9,0.6s13.4,0.8,13.4,0.8s-12.9,7.4-13.8,8.3s-5.5,1.1-5.5,1.1
		l-3.6,4.9l-0.6,1l-3.4-2.9l-12.3-0.1l-4.1-2.1l-2.2-3.2l-7.6-2.7l-6.9-9L547.7,290.8z"/>
	<path class="st39" d="M566.6,273.7c0,0-19.9,1.9-23,2.5s-9,2.7-9,2.7l-3.6,3.1l6.6,2.2c0,0,1-2.1,3.2-2.2l-1-2.6c0,0,3.4,2.6,1.9,1
		c-0.8-0.8,1.8-2.3,1.8-2.3s4.8-2.8,7-2.8s5.2,0.9,5.2,0.9l3-0.7c0,0,3.4-2.2,4.9-1s1.8-0.2,1.8-0.2l1.8-0.1l3.3-1.4L566.6,273.7z"
		/>
	<path class="st24" d="M527.3,282.5c0,0,12.5,8.6,21.4,9.6c8.8,0.9,45.9,2.3,45.9,2.3l2.7-0.2c0,0,11.2-1,15.2-3.1
		c4-2.1-31.6-0.2-31.6-0.2l-31-2.5L527.3,282.5z"/>
	<path class="st15" d="M527.3,282.5c0,0,4.4,1.1,8.5-1.1c4-2.1,27.4-7.4,41.6-5.3c1.7,0.2,4.8-0.4,6.9,0c14.8,3,36,10,36,10l4.5-1.4
		l-11.5-4.1l-22.1-7.7c0,0-17.3-1.8-20.7-1.4s-21.8,2.1-21.8,2.1l-14.1,4.2L527.3,282.5z"/>
	<g>
		<path class="st29" d="M541.8,279.5c0.1,1.7,0.2,3.2,0.3,4.9c-1.9,0.6-3.9,0.4-5.5-0.7C537.5,280.9,539.6,279.9,541.8,279.5z"/>
		<path class="st26" d="M541.8,279.5c0.2,1.5,0.3,3.2,0.5,4.9l0,0.2l-0.2,0.1c-0.9,0.3-1.9,0.4-2.9,0.3c-1-0.1-2-0.5-2.8-1.1
			l-0.1-0.1l0.1-0.2c0.4-1.2,1.1-2.2,2.1-3C539.4,279.9,540.6,279.6,541.8,279.5z M541.8,279.5c-1.2,0.3-2.3,0.7-3.2,1.4
			c-0.9,0.7-1.5,1.7-1.8,2.8l-0.1-0.3c1.5,1.1,3.5,1.2,5.3,0.7l-0.2,0.2C541.8,282.8,541.8,281.2,541.8,279.5z"/>
	</g>
	<path class="st40" d="M527.9,281.8l2.6-3c0,0,12.8-7.3,19.1-8.3c6.3-1,28.9,2.4,28.9,2.4l-14.6-1l-8.2,1.3l-11.2,1.9
		C544.5,275.1,532.6,276.3,527.9,281.8z"/>
	<path class="st40" d="M579.1,290.1c0,0,14,1.7,16.4,1.6s13.6-1.5,13.6-1.5l10.7-2.7c0,0-17.7,6.2-20.4,6.4s-15.5-0.4-15.5-0.4
		l-17.4-1.4L579.1,290.1z"/>
	<path class="st3" d="M473.1,255c0,0,13.1,45.9,17.2,50.6c4.2,4.6,23.2,23.6,23.2,23.6l7.2,7.2h-3c0,0,20.3,17.3,27.8,18
		c7.5,0.7,14,1.5,14,1.5l-3,1.4c0,0,34.1,2.9,39,1.1c4.8-1.8,34.3-15.5,34.3-15.5l-34.9,21.9l-52.8-5.7c0,0-46-33.3-50-45.5l-5.9-8
		C486.2,305.5,472.1,267.4,473.1,255z"/>
	<g>
		<path d="M472.1,252.7c2.2,10.7,4.5,21.4,7.4,31.9c1.4,5.3,3,10.5,5,15.5c1,2.5,2.1,5,3.6,7.2c0.7,1,1.7,2.1,2.5,3.2
			c0.9,1.1,1.7,2.1,2.6,3.2c6.9,8.4,14.5,16.3,22.5,23.6c8,7.3,16.6,14.1,25.3,20.6l-0.3-0.1c4.2,1.1,8.8,1.7,13.2,2.2
			c4.5,0.5,8.9,1,13.4,1.3c2.2,0.2,4.5,0.3,6.7,0.5l6.8,0.4l6.8,0.3l6.8,0.2l-0.3,0.1c7.6-3.9,15-8,22.4-12.1
			c3.7-2.1,7.4-4.2,11-6.5c1.8-1.1,3.6-2.3,5.3-3.5c1.7-1.2,3.5-2.5,4.8-4.1c-1.3,1.7-3,3-4.7,4.4c-1.7,1.3-3.4,2.5-5.2,3.7
			c-3.5,2.4-7.2,4.6-10.8,6.8c-7.3,4.4-14.7,8.6-22.2,12.6l-0.2,0.1l-0.2,0l-6.8-0.1l-6.8-0.2c-4.5-0.2-9-0.4-13.6-0.7
			c-4.5-0.3-9-0.7-13.5-1.2c-4.5-0.5-9-1.1-13.5-2.2l-0.1,0l-0.2-0.1c-8.8-6.5-17.4-13.4-25.4-20.8c-8.1-7.4-15.6-15.4-22.5-23.9
			c-0.9-1.1-1.7-2.1-2.5-3.2c-0.8-1.1-1.7-2.1-2.5-3.3c-1.6-2.4-2.6-5-3.6-7.5c-1.9-5.2-3.4-10.4-4.7-15.7c-1.3-5.3-2.5-10.7-3.5-16
			C473.9,263.4,473,258.1,472.1,252.7z"/>
	</g>
	<path class="st24" d="M610.9,282.6l13.4,2.1c0,0-4.6,3.2-5.8,3.7l-4.4-1.3l-0.6-2.1l-3.6-2.7L610.9,282.6z"/>
	<g>
		<path class="st27" d="M588.3,282.1c0-1.4,0.1-2.8,0.1-4.2c1.6-2.1,4.1,0,5.5,0.6c1.4,0.7,1.8,1.1,2.2,2.6c0.4,1.9-0.2,3.6-1,5.3
			c-0.3,0.5-0.8,0.8-1.3,0.9C587.7,287.2,587.3,286.8,588.3,282.1z"/>
		<path class="st26" d="M588.3,282.1l0.1-4.2l0,0l0,0c0.4-0.5,1-0.9,1.6-1c0.7-0.1,1.3,0.2,1.9,0.4c0.6,0.3,1.2,0.6,1.7,0.9
			c0.6,0.3,1.2,0.5,1.7,1c0.5,0.5,0.8,1.1,1,1.8c0.2,0.6,0.2,1.3,0.2,2c-0.1,1.3-0.6,2.6-1.2,3.7l0,0l0,0c-0.3,0.5-0.9,0.8-1.5,0.9
			l0,0l0,0c-0.8,0-1.7-0.1-2.5-0.2c-0.8-0.1-1.7-0.2-2.5-0.6c-0.4-0.2-0.7-0.5-0.8-0.9c-0.1-0.4-0.1-0.8-0.1-1.2
			C588,283.8,588.1,283,588.3,282.1z M588.3,282.1c-0.2,0.8-0.3,1.6-0.4,2.5c0,0.4,0,0.8,0.1,1.2c0.1,0.4,0.4,0.7,0.8,0.9
			c0.7,0.3,1.6,0.4,2.4,0.4c0.8,0,1.7,0.1,2.5,0.1l0,0c0.5-0.1,0.9-0.4,1.2-0.8l0,0c0.6-1.1,1-2.3,1.1-3.5c0-0.6,0-1.2-0.2-1.8
			c-0.2-0.6-0.4-1.2-0.8-1.6c-0.4-0.4-1-0.7-1.6-1c-0.6-0.3-1.1-0.7-1.7-0.9c-0.6-0.3-1.2-0.5-1.8-0.5c-0.6,0-1.2,0.4-1.6,0.8l0,0
			L588.3,282.1z"/>
	</g>
	<g>
		<path class="st29" d="M601.5,280.3c0.2,0.3,0.4,0.7,0.6,1c0.6,2,1.3,3.9-0.1,5.9c-2,1-3.9,0.9-5.6-0.7c-0.9-1.7,0-3.4-0.1-5
			c1-1.9,2.5-2,4.3-1.3C600.8,280.4,601.1,280.5,601.5,280.3z"/>
		<path class="st41" d="M601.5,280.3l0.7,1l0,0l0,0c0.3,1,0.7,1.9,0.8,3c0.1,1-0.1,2.2-0.8,3l0,0l0,0c-0.9,0.5-2,0.8-3.1,0.7
			c-1.1-0.1-2.1-0.7-2.8-1.4l0,0l0,0c-0.5-0.8-0.5-1.8-0.4-2.6c0.1-0.9,0.3-1.7,0.3-2.5l0-0.1l0,0c0.4-0.8,1.1-1.5,2-1.7
			c0.9-0.2,1.7,0.1,2.5,0.4l0,0l0,0C600.8,280.3,601.2,280.4,601.5,280.3z M601.5,280.3c-0.3,0.2-0.7,0.1-0.9-0.2l0,0
			c-0.8-0.3-1.6-0.4-2.4-0.2c-0.8,0.2-1.3,0.9-1.7,1.6l0-0.1c0.1,0.9-0.1,1.8-0.2,2.6c-0.1,0.8,0,1.7,0.4,2.3l0-0.1
			c0.7,0.7,1.6,1.2,2.5,1.3c1,0.1,1.9-0.2,2.8-0.6l-0.1,0.1c0.6-0.8,0.9-1.8,0.8-2.8c-0.1-1-0.4-2-0.6-3l0,0L601.5,280.3z"/>
	</g>
	<path class="st15" d="M586.4,277c0,0,26.9,8.2,28.7,9.3c1.8,1.1,0-2.3,0-2.3s-31.1-9.8-34.5-9.5s-5.6,1.2-5.6,1.2L586.4,277z"/>
	<path class="st40" d="M617.1,281.1c2.4,1.1,6.6,3.3,6.6,3.3s-9.8-0.8-10.3-1.1c-0.5-0.3-13.7-4.1-13.7-4.1l-40-6.7l-5.9-1.5
		C553.8,270.9,614.7,280,617.1,281.1z"/>
	<polygon class="st34" points="199.5,968 203.3,971.2 201.4,975.2 196.2,970.9 199.3,967.5 	"/>
	<polygon points="195.9,968 208.7,979.7 204.2,979.1 192.8,969.7 	"/>
	<polygon points="235.2,943.2 239.8,946.7 249.3,943.6 	"/>
	<path class="st38" d="M545.1,270.8c0,0-16.9,11.3-18.3,11.7c-1.3,0.4-2.6-2.5-2.6-2.5l4.7-3.6l17.9-7.2l6.4,0.7L545.1,270.8z"/>
	<path class="st40" d="M580.1,270.2c0,0,8.3,0.2,17.2,2.6s19.5,8.2,19.5,8.2l-13.9-2.8l-16.7-5.1l-13.3-1.9"/>
	<path class="st12" d="M786.3,555.8l2.8-22L796,579l10-31.8c0,0,5.1,38.4,3.3,44.7c-1.8,6.3-2.3,14.6-2.3,14.6l14-18.7l-7.3,34
		l11.7-9.3l-24.7,29.7l-2-43.7l-7.4-22.3L786.3,555.8z"/>
	<polygon class="st35" points="608.3,424.6 616,421.4 622.2,422.5 611.5,427.1 603.5,426.6 	"/>
	<path class="st35" d="M624.6,420.6c0,0-7.2,4.8-10.2,5.5c-3,0.7-1.9,0-1.9,0l13.1-7.3L624.6,420.6z"/>
	<path class="st35" d="M628.2,424.3c0,0,2.2-3.2,3.2-4.2c1-1,11.6-4.6,11.6-4.6l2.9-0.9h3.3l-12.2,6.8L628.2,424.3z"/>
	<polygon class="st35" points="609.6,423.6 614.4,421.7 614.4,422.3 608.4,425.1 	"/>
	<polygon class="st35" points="630.4,425.3 647.9,414.6 652.6,432.8 717,446.2 749,446.2 786.3,467.5 793.2,471.8 803,492.5 
		811.5,512.5 827.2,543.2 833.5,555.5 833.5,577.5 834.5,594.9 839,591.9 840.8,590.7 840.8,594.9 839.2,603.3 835.2,622.3 
		824.5,634.5 824,627.8 827,616.8 829.1,608.5 825.3,597.7 824.5,586.7 824.3,576.5 821.7,565 819.8,551.5 802.8,533.2 771.8,501.2 
		730.8,469.5 645.6,444.1 612.3,445.2 	"/>
	<polygon class="st4" points="652.6,432.8 616.5,445.1 646.7,454.5 667,452.5 692.1,458 708.2,446.2 708.2,441.7 	"/>
	<path class="st42" d="M635.4,386.2l2.1-1.2l5.3,3.2l-2.3,6.3l-3.1,5L637,407h12.2l30.5,19.5l1.9,0.7c0,0,45,10,47.8,11.2
		s30.1,10.9,30.1,10.9l13.1,6.4l20.7,15l22.7,47l10.8,28l6,8.1l2.4,43.9l4.8-6.3l-5.8-34.9l-4-14.3l-6.2-23.5l-12.2-29.2l-7.3-10.3
		l-5.5-10.2l-9.3-7.7l-17.2-12.2l-54.5-19.3l-31.2-9.5l-40.2-25.1l-1.1-7.9l-5.9-5c0,0-4-2.1-4.8-0.2
		C634,384.1,635.4,386.2,635.4,386.2z"/>
	<polygon class="st34" points="848.4,925.2 830.1,945.5 828.3,953.2 828.3,955.2 839.5,947 860.3,912.8 	"/>
	<path class="st43" d="M798,973.5c0,0,17.9,62.1,17.4,59c-0.4-3.1-16.7-57.2-16.7-57.2"/>
	<polyline class="st43" points="190.1,901.9 189.5,946.3 188.7,967.1 	"/>
	<path class="st43" d="M298.2,943.6c0,0-2.1,35.9-4,44.4c-1.9,8.5-2.2,39.7-2.2,39.7l-1,20.8"/>
	<path class="st43" d="M454.2,194.8l-0.5-1.9l-0.5-10.7c0,0-1-8.4-0.8-15c0.2-6.6-3.7-9.8-3.7-9.8l1,3c-11.5-5-7-19-7-19l-5.7-11.7
		c0,0,7.7,5.7,6.7-0.7l-0.3-3.2c0,0-5.7-3.7-5-6.2c0.7-2.6,1.9-3.6,1.9-3.6s5.9-2,3.7-6.5l3,6.2c0,0-4.6-11.1,1.5-11.8
		c6-0.7,8-5.1,8-5.1s0.2-5.4,3.8-6c3.6-0.6,8-1.8,8-1.8s18.8-20.6,22.5-22.2s10-5.1,15.5-5c0,0,8.3-5.4,16-7.2
		c7.7-1.8,10.2-3.5,10.2-3.5s9.1-0.5,9.9-2.5c0.9-2,7.1-12.9,14.7-11.8c7.6,1,24,0.6,24,0.6s7.5-2.3,12,0.5
		c4.5,2.8,8.8,4.1,16.6,10.7c0,0,2.7,2.4,5.5,0.7s3.9-2.5,3.9-2.5l-3.7,6l9.3-0.3c0,0-6.7,1.9,1,7.8c0,0,4.1,4.1,7.5,1.9l3-4.2
		c0,0-0.8,5.5-0.7,6.8c0.1,1.4,0.8,3.8,1.9,4.3c1.1,0.5,6,9.7,6,9.7s5.7,2,7.4,4.3s10.9,6,10.9,6l1,0.3l6.4-1c0,0-2.6,8,0.3,9.5
		c2.9,1.5,3.3,3.5,3.3,3.5l6.8,7.1l6.8,12.8l1.4,2.7l-7,9l-0.5,0.4v17.1h1.3l-1.3,6.5l0.6,2.5c0,0-3.5,8.7-3.3,10.6
		c0.2,1.9,0.2,3.1,0.2,3.1l-0.2,4.6l-1.8,2.8v4.7L673,199l2.5,2.3c0,0-3.6,11.2-3.7,12.5c-0.1,1.3-0.1,3.5-0.1,3.5l-0.7,0.8"/>
	<polyline class="st43" points="340.2,1008.5 342.3,1028.8 331.8,1051.7 333.4,1071.8 	"/>
	<polyline class="st43" points="771.9,992.5 771.9,1014.1 777,1027.5 777,1038.9 778.5,1047.8 778.5,1054.6 	"/>
</g>
</svg>
