<?xml version="1.0" encoding="utf-8"?>
<!-- Generator: Adobe Illustrator 22.0.0, SVG Export Plug-In . SVG Version: 6.00 Build 0)  -->
<svg version="1.1" id="Layer_1" xmlns="http://www.w3.org/2000/svg" xmlns:xlink="http://www.w3.org/1999/xlink" x="0px" y="0px"
	 viewBox="0 0 1080 1080" style="enable-background:new 0 0 1080 1080;" xml:space="preserve">
<style type="text/css">
	.st0{fill:#0170FF;}
</style>
<path class="st0" d="M384.9,468.9c0,0-20.3,6.4-20.8,11s1.9,6.6,7.4,5.4s17.6-7.1,17.6-7.1S395.8,471.4,384.9,468.9z"/>
<path class="st0" d="M368.7,516c0,0-20.3,6.4-20.8,11s1.9,6.6,7.4,5.4s17.6-7.1,17.6-7.1S379.6,518.5,368.7,516z"/>
<path class="st0" d="M414.5,527.5c0,0-27.1,7.4-27.8,12.7c-0.7,5.4,2.9,9,9.9,6.2c8.2-3.3,23.6-8.3,23.6-8.3S429,528.1,414.5,527.5z
	"/>
<path class="st0" d="M442.3,434.8l80.8,20.8l48.3-68.8L439.5,435c0,0-23.1,1.3-22.1,1.3s-4.1-3.4,12.9-11s146.4-53.9,146.4-53.9
	s14.8-5.2,18.5,4.2c3.7,9.3,34.3,89.3,34.3,89.3s4.5,9-10.7,15.2c-15.2,6.2-155,57-155,57s-12,2-16.5-14s-30-80.7-30-81.3
	c0-0.7,13,2.5,13,2.5l26.8,74.5l2.2,0.8l37.3-59l10.2,2.8l-34.5,56.9c0,0,2.3,1.7,6.3-0.5c4-2.2,124.7-45.8,125.7-46.3
	s1.5-3-2.3-3.5s-60.5-18.5-60.5-18.5l7.3-10.1c0,0,63,22.5,64.8,19.8s-26-72.8-26-72.8s-2-0.9-5.5,4.6s-50.5,75.8-53.4,76.3
	s-105.9-26.6-107.5-25.1s-8.7-5.7-1.8-12.1C426.1,425.5,442.3,434.8,442.3,434.8z"/>
</svg>
